<svg id="220c7aaf-4186-41a7-922d-60eb20afaf63" data-name="Capa 1" xmlns="http://www.w3.org/2000/svg" viewBox="0 0 24 24"><defs><style>.d5d03efc-f0bb-4775-b4fc-285883bbeddd{fill:#f3f2e0;}</style></defs><title>icons8-instagram</title><path class="d5d03efc-f0bb-4775-b4fc-285883bbeddd" d="M10,3a7,7,0,0,0-7,7V20a7,7,0,0,0,7,7H20a7,7,0,0,0,7-7V10a7,7,0,0,0-7-7H10ZM22,7a1,1,0,1,1-1,1A1,1,0,0,1,22,7ZM15,9a6,6,0,1,1-6,6A6,6,0,0,1,15,9Zm0,2a4,4,0,1,0,4,4A4,4,0,0,0,15,11Z" transform="translate(-3 -3)"/></svg>