<svg id="b88a0bb6-ea38-4174-8611-2dc2a67ed84d" data-name="Capa 1" xmlns="http://www.w3.org/2000/svg" viewBox="0 0 24 24"><defs><style>.e9b24128-8358-4b84-a55a-296cfe53c30c{fill:#534b52;}</style></defs><title>icons8-whatsapp_contact</title><path class="e9b24128-8358-4b84-a55a-296cfe53c30c" d="M15,3A12,12,0,0,0,3,15a11.77,11.77,0,0,0,1.7,6.2L3.1,27l6-1.6A11.84,11.84,0,0,0,15,27,12,12,0,0,0,15,3ZM10.9,9.4h0.6a0.71,0.71,0,0,1,.7.5c0.3,0.6.8,2.1,0.9,2.2a0.45,0.45,0,0,1,0,.5,1.33,1.33,0,0,1-.3.5,2.18,2.18,0,0,1-.4.5,0.43,0.43,0,0,0-.1.6A10.09,10.09,0,0,0,14,16.3a9.66,9.66,0,0,0,2.4,1.5c0.3,0.1.5,0.1,0.6-.1a12.49,12.49,0,0,0,.9-1.2c0.2-.3.4-0.2,0.7-0.1a18.65,18.65,0,0,1,2,1c0.3,0.2.5,0.2,0.6,0.3a2,2,0,0,1-.2,1.4,2.8,2.8,0,0,1-2,1.4c-0.5.1-1.1,0.2-3.6-.7-3-1.2-4.9-4.3-5.1-4.5a6.21,6.21,0,0,1-1.2-3.1,3.65,3.65,0,0,1,1-2.5A1.6,1.6,0,0,1,10.9,9.4Z" transform="translate(-3 -3)"/></svg>