<svg id="ff18a7b2-1075-4174-bb10-2677b97c79b0" data-name="220c7aaf-4186-41a7-922d-60eb20afaf63" xmlns="http://www.w3.org/2000/svg" viewBox="0 0 24 24"><defs><style>.f991e028-672b-431f-a963-d34245106430{fill:#534b52;}</style></defs><title>icons8-instagram_contact</title><path class="f991e028-672b-431f-a963-d34245106430" d="M7,0A7,7,0,0,0,0,7V17a7,7,0,0,0,7,7H17a7,7,0,0,0,7-7V7a7,7,0,0,0-7-7H7ZM19,4a1,1,0,1,1-1,1A1,1,0,0,1,19,4ZM12,6a6,6,0,1,1-6,6A6,6,0,0,1,12,6Zm0,2a4,4,0,1,0,4,4A4,4,0,0,0,12,8Z"/></svg>