<svg id="Capa_1" data-name="Capa 1" xmlns="http://www.w3.org/2000/svg" viewBox="0 0 695.38 197.7"><defs><style>.cls-1{fill:#ce9a89;}.cls-1,.cls-2{opacity:0.11;isolation:isolate;}.cls-2{fill:#80cec4;}</style></defs><title>Pluma</title><path class="cls-1" d="M478.79,283.59A189.42,189.42,0,0,1,457,266.91l-10.3-9.16c-11.25-10.07-22.25-20.32-34.47-29.25a144.82,144.82,0,0,0-25.5-15.31c-9.75-4.42-12.69-4.82-23.07-7.61-1.56-.42-1.37,2.22-0.23,2.54L396.27,221l10,6.34a245.52,245.52,0,0,1,23.77,18.86c7,6.09,13.77,12.33,20.68,18.46a305.74,305.74,0,0,0,27,21.15C479.1,286.74,479.82,284.29,478.79,283.59Z" transform="translate(-146.27 -184.38)"/><path class="cls-1" d="M475.28,283.32c-11.17-8.23-21.61-16.77-31.93-26C435,249.8,426.79,242.21,418,235.16a175.52,175.52,0,0,0-24.07-16.92l-10.57-5.5a106.43,106.43,0,0,0-22.63-7.63c-2.11-.57-0.34,7.44,1,7.8a76.68,76.68,0,0,1,16.47,5.35,86.7,86.7,0,0,1,15.56,7.63,226.64,226.64,0,0,1,24.09,16.92c8.84,7,17.09,14.8,25.57,22.2,10.24,9,20.7,17.64,31.47,26,1.23,1,1.18-1.73,1.18-2.11C476.23,287.82,476.42,284.16,475.28,283.32Z" transform="translate(-146.27 -184.38)"/><path class="cls-1" d="M475.81,277.37c-11.21-8.27-21.7-16.92-32.06-26.14-8.33-7.49-16.54-15.06-25.23-22.12a172.07,172.07,0,0,0-24-16.92l-10.57-5.48A104.55,104.55,0,0,0,361.23,199c-2-.53.11,6.68,1.46,7.06a130.62,130.62,0,0,1,32,13.36,230,230,0,0,1,24,16.92c8.82,7,17.09,14.8,25.57,22.14Q459.71,272,476,284.56c1.21,1,1.08-1.76,1.08-2C477,281.37,476.95,278.22,475.81,277.37Z" transform="translate(-146.27 -184.38)"/><path class="cls-1" d="M479,282.74c-11.19-8.29-21.68-16.92-32.06-26.16-8.35-7.46-16.58-15.06-25.38-22.1a174.63,174.63,0,0,0-24-16.92l-10.45-5.48a104.85,104.85,0,0,0-22.56-7.63c-1.67-.47-0.42,2.52-0.27,2.94,0.44,1.29,1.73,6.34,3.32,6.94A134,134,0,0,1,399.27,228a251.66,251.66,0,0,1,24,16.92c8.84,7,17.11,14.65,25.65,22q15.54,13.43,31.72,26.05c1.54,1.21.61-3.07,0.66-2.9C481,288.37,480.58,283.93,479,282.74Z" transform="translate(-146.27 -184.38)"/><path class="cls-1" d="M478.66,277a477.33,477.33,0,0,1-37.24-30.77c-8-7.23-16-14.63-24.64-21.15a213.9,213.9,0,0,0-19.5-13.24,90.19,90.19,0,0,0-16-7.7,78.56,78.56,0,0,0-17.17-5.41c-1.73-.47,1,6.09,2.47,6.56a79.49,79.49,0,0,1,16.6,5.82A98.9,98.9,0,0,1,398.79,219a222,222,0,0,1,28.61,20.7c10.57,8.82,20.47,18.17,30.94,27,7.23,6.09,14.3,11.59,21.76,17.34,1.29,1,.7-2.11.7-2.11A9.22,9.22,0,0,0,478.66,277Z" transform="translate(-146.27 -184.38)"/><path class="cls-1" d="M473,280.19c-11.17-8.25-21.61-16.77-31.93-26.05-8.31-7.49-16.52-15.1-25.23-22.14a171.3,171.3,0,0,0-24.09-16.92l-10.57-5.48A105.74,105.74,0,0,0,358.48,202c-2.11-.55-1.16,4.63,0,4.91a77.1,77.1,0,0,1,16.75,5.18A83.61,83.61,0,0,1,391,219.66a205.51,205.51,0,0,1,24.13,16.92c8.8,7.08,16.92,14.8,25.38,22.29,10.19,9.09,20.64,17.68,31.51,25.95C473.59,286,474,280.93,473,280.19Z" transform="translate(-146.27 -184.38)"/><path class="cls-1" d="M476.25,283.59a103.62,103.62,0,0,1-16.47-11.84q-8-6.49-15.63-13.53c-9.73-8.73-19.29-17.87-29.73-25.78a161.75,161.75,0,0,0-30-18.63c-9.18-4.23-13.53-5.1-23.26-7.7-1.44-.38-1.73,1.84-0.57,2.11l11.61,3.13a110.66,110.66,0,0,1,26.31,12.82,199.8,199.8,0,0,1,23.71,17.34c7,6,13.83,12.29,20.72,18.48q7.57,7.08,15.67,13.56A92.12,92.12,0,0,0,475,285.2C476,285.92,477.31,284.27,476.25,283.59Z" transform="translate(-146.27 -184.38)"/><path class="cls-1" d="M481,281.1c-12.69-9.41-24.87-19.62-36.65-30.24-8.18-7.38-16.37-15-25.16-21.59A216.38,216.38,0,0,0,399.66,216a91.25,91.25,0,0,0-16-7.72,79.24,79.24,0,0,0-17.15-5.48c-1.44-.4-0.47,1.88-0.36,2.11,0.42,1.1,1.56,3.83,2.85,4.23A137.67,137.67,0,0,1,401.39,223a240.64,240.64,0,0,1,24,17c12.2,9.75,23.43,20.64,35.44,30.62,7.13,5.94,14.4,11.57,21.76,17.21,1.29,1,.61-2.11.63-2.11A9.26,9.26,0,0,0,481,281.1Z" transform="translate(-146.27 -184.38)"/><path class="cls-1" d="M474.45,279.23c-11.19-8.29-21.65-16.92-32-26.14-9.77-8.73-19.33-17.89-29.8-25.8A127.07,127.07,0,0,0,360,200.93c-2.11-.57-0.36,7.53.93,7.89l21.74,7.55a108.76,108.76,0,0,1,15.12,8.56,224.65,224.65,0,0,1,23.81,17.47c7.13,6,14,12.33,21,18.52C452.76,270,463.24,278.6,474,287c1.23,1,1.23-1.69,1.23-2.11C475.26,283.84,475.57,280.08,474.45,279.23Z" transform="translate(-146.27 -184.38)"/><path class="cls-1" d="M477.35,279.36c-11.25-8.25-21.7-16.92-32.1-26.12-9.77-8.71-19.33-17.89-29.8-25.78a127,127,0,0,0-52.51-26.35c-1.73-.47-0.4,2.66-0.25,3.15q0.87,2.6,1.95,5.12a5.92,5.92,0,0,0,1.44,2.5l21.4,8a111.19,111.19,0,0,1,15,8.73,252.94,252.94,0,0,1,23.77,17.45c17.68,14.8,34.66,30.24,52.87,44.41,1.59,1.25.68-3.24,0.7-3.11q-0.49-2.73-1.18-5.41A6,6,0,0,0,477.35,279.36Z" transform="translate(-146.27 -184.38)"/><path class="cls-1" d="M480.86,283.19c-11.12-8.31-21.63-16.92-32-26.12-9.77-8.73-19.33-17.87-29.8-25.78a177.82,177.82,0,0,0-19.94-13.58l-10.57-5.5a106.84,106.84,0,0,0-22.78-7.7c-1.82-.51,0,4.23,1.16,4.5l11.44,3.38a90.93,90.93,0,0,1,16.14,7.38,81.76,81.76,0,0,1,14.8,9.33A151.3,151.3,0,0,1,428.06,243c7.06,6,13.87,12.22,20.77,18.38,10.3,9.14,20.87,17.64,31.72,26C482.74,289,481.83,283.91,480.86,283.19Z" transform="translate(-146.27 -184.38)"/><path class="cls-1" d="M473.2,282l-31.72-25.91-10.26-9.3c-8-7.11-16-14-24.59-20.28a155.39,155.39,0,0,0-20-12.48,134,134,0,0,0-27.89-10.24c-1.92-.51-1.4,3.6-0.34,3.89a103.88,103.88,0,0,1,22.37,7.25l10.4,5.37A194.21,194.21,0,0,1,425,245.36c8.71,7.68,17.13,15.69,25.95,23.26,7.85,6.7,13.32,10.81,21.46,17.07C473.73,286.76,474.16,282.68,473.2,282Z" transform="translate(-146.27 -184.38)"/><path class="cls-1" d="M473.12,291.14a234.33,234.33,0,0,1-25.38-21.34q-12-11.63-23.83-23.49a368.27,368.27,0,0,0-30.32-27.49,162.51,162.51,0,0,0-30.64-19.18c-9.66-4.5-12.94-5.16-23.26-8.1-1.54-.44-1.4,2.11-0.25,2.54l33.12,13.39a140.34,140.34,0,0,1,15,10,250.42,250.42,0,0,1,23.13,19.33c8.16,7.66,16.05,15.63,24,23.52q8.75,9,18.14,17.26a173.12,173.12,0,0,0,19,15.71C473.31,294.38,474.13,291.92,473.12,291.14Z" transform="translate(-146.27 -184.38)"/><path class="cls-1" d="M469.5,290.89A218,218,0,0,1,450.58,275q-9.39-8.31-18.19-17.28c-10.83-10.57-21.4-21.72-33-31.55a192.84,192.84,0,0,0-29.18-21.38l-10.57-5.63a120.54,120.54,0,0,0-22.33-8.08c-1.92-.59,0,7.25,1.42,7.74a159.87,159.87,0,0,1,31.19,13.58,203,203,0,0,1,29,21.3c11.59,10,22.29,21,33.31,31.72C444.09,277,456.29,287.95,469,298.58c1.18,1,1.25-1.65,1.27-2C470.24,295.35,470.6,291.77,469.5,290.89Z" transform="translate(-146.27 -184.38)"/><path class="cls-1" d="M470.05,285a217.11,217.11,0,0,1-19-16q-9.37-8.31-18.14-17.28C422.07,241.11,411.52,230,400,220.13a191.65,191.65,0,0,0-29.2-21.36l-10.57-5.63a119.19,119.19,0,0,0-22.61-8.08c-1.82-.55.49,6.51,1.88,7A166.74,166.74,0,0,1,370.73,206a207,207,0,0,1,28.89,21.34c11.57,10,22.29,21,33.31,31.61,11.93,11.53,24.17,22.54,36.9,33.22,1.16,1,1.18-1.65,1.18-1.92C471,289,471.15,285.85,470.05,285Z" transform="translate(-146.27 -184.38)"/><path class="cls-1" d="M473.18,290.34C460.11,279.76,448,268.83,436,257.05c-10.83-10.57-21.4-21.72-33-31.55a193.73,193.73,0,0,0-29.14-21.36l-10.57-5.63a122.65,122.65,0,0,0-22.33-8.1c-1.71-.53-0.25,2.69-0.15,3,0.55,1.46,1.88,6.2,3.57,6.85a180.72,180.72,0,0,1,30.94,14.38,222,222,0,0,1,28.78,21.46c11.59,10,22.33,20.89,33.41,31.47,12,11.46,24.3,22.48,37,33.18,1.5,1.27.74-3,.76-2.88C475,296.09,474.73,291.61,473.18,290.34Z" transform="translate(-146.27 -184.38)"/><path class="cls-1" d="M472.91,284.54a215.32,215.32,0,0,1-19-16q-9.39-8.31-18.14-17.26c-10.81-10.57-21.36-21.72-32.93-31.55a191.74,191.74,0,0,0-29.29-21.36l-10.57-5.71a120.65,120.65,0,0,0-22.56-8.1c-1.46-.44-0.34,2.11-0.23,2.24,0.59,1.23,1.67,3.76,3.09,4.23a178,178,0,0,1,31.55,14.49A216.65,216.65,0,0,1,403.67,227c11.55,10,22.27,20.89,33.26,31.47,12,11.5,24.28,22.48,37,33.12,1.25,1,.82-2.11.82-2.11A9.3,9.3,0,0,0,472.91,284.54Z" transform="translate(-146.27 -184.38)"/><path class="cls-1" d="M467.3,287.82a218,218,0,0,1-19-15.9q-9.39-8.31-18.17-17.3C419.3,244,408.75,232.88,397.18,223A188.93,188.93,0,0,0,368,201.69l-10.57-5.58a119.4,119.4,0,0,0-22.46-8c-2-.59-0.8,4.57.34,4.91A147.06,147.06,0,0,1,367,206.15a189.69,189.69,0,0,1,29.08,21.15c11.55,10.07,22.23,21,33.16,31.72,11.82,11.61,24,22.59,36.77,33.16C467.6,293.47,468.23,288.5,467.3,287.82Z" transform="translate(-146.27 -184.38)"/><path class="cls-1" d="M470.58,291.14a179.74,179.74,0,0,1-25.16-20.83l-11.95-11.65c-12.29-12.07-24.26-24.38-37.54-35.38A173.15,173.15,0,0,0,366,203q-2.77-1.61-5.67-3a111,111,0,0,0-22.82-8c-1.42-.42-1.76,1.8-0.59,2.11a76.57,76.57,0,0,1,22.27,8.31A91.31,91.31,0,0,1,380,213.89a245.07,245.07,0,0,1,23.43,18.95c9.81,8.84,19,18.29,28.46,27.49l12,11.69a163.65,163.65,0,0,0,25.38,20.66C470.22,293.47,471.62,291.9,470.58,291.14Z" transform="translate(-146.27 -184.38)"/><path class="cls-1" d="M475.21,288.71L438.54,256q-9.09-9.2-18.44-18.12a289.28,289.28,0,0,0-24.32-21.59,216.75,216.75,0,0,0-19.84-13.66,144.45,144.45,0,0,0-33.05-13.81c-1.46-.44-0.32,2.11-0.23,2.11,0.61,1.23,1.67,3.64,3.09,4.23a170.72,170.72,0,0,1,41.72,21.15,310.57,310.57,0,0,1,28,23c12.2,11.21,23.64,23.26,35.8,34.47,8.71,8.06,16.22,14.3,25.38,21.87,1.25,1,.7-2.11.72-2.11A9.47,9.47,0,0,0,475.21,288.71Z" transform="translate(-146.27 -184.38)"/><path class="cls-1" d="M468.68,286.83a296.53,296.53,0,0,1-25.16-21.59l-12-11.67c-12.31-12.07-24.3-24.42-37.62-35.4a178.12,178.12,0,0,0-29.82-20.34,148.79,148.79,0,0,0-27.79-10.87c-1.92-.59,0,7.36,1.42,7.82a160,160,0,0,1,31.09,13.53,202.61,202.61,0,0,1,28.91,21.27C409.3,239.65,420,250.6,431,261.3c11.91,11.53,24.11,22.56,36.8,33.24C469.23,295.67,469.93,287.82,468.68,286.83Z" transform="translate(-146.27 -184.38)"/><path class="cls-1" d="M471.58,286.87a282.25,282.25,0,0,1-25.23-21.59l-12-11.67C422,241.55,410,229.2,396.72,218.22a178.76,178.76,0,0,0-29.8-20.32A147.05,147.05,0,0,0,339.13,187c-1.76-.53-0.25,2.83-0.13,3.15q1,2.58,2.11,5.08a6,6,0,0,0,1.54,2.45A181.34,181.34,0,0,1,373.31,212,222.49,222.49,0,0,1,402,233.43c11.61,10,22.39,20.94,33.5,31.51q18,17.19,37,33.24c1.52,1.29.85-3.15,0.87-3.07q-0.36-2.75-.91-5.48A6,6,0,0,0,471.58,286.87Z" transform="translate(-146.27 -184.38)"/><path class="cls-1" d="M475,290.57a280.37,280.37,0,0,1-25.08-21.34l-12-11.65c-12.29-12.05-24.26-24.38-37.56-35.32a204.34,204.34,0,0,0-19.88-14.61,111.34,111.34,0,0,0-15.71-8.9,123.18,123.18,0,0,0-22.5-8.21c-1.71-.53.3,4.23,1.48,4.53A155.77,155.77,0,0,1,376,209.26a234.73,234.73,0,0,1,33.16,25.23c9.85,8.82,19,18.25,28.59,27.49,11.88,11.55,24.13,22.44,37,32.95C476.8,296.62,476,291.31,475,290.57Z" transform="translate(-146.27 -184.38)"/><path class="cls-1" d="M467.47,289.47a553.54,553.54,0,0,1-42.74-39q-8.88-8.95-18-17.59c-4.63-4.23-9.11-8.25-13.94-12.22a168.75,168.75,0,0,0-24.57-17.45l-10.57-5.58a117.33,117.33,0,0,0-22.52-7.93c-1.86-.55-1.14,3.57,0,3.89a113.18,113.18,0,0,1,21.61,7.51l10.57,5.48c14.8,8.21,27.32,19.52,39.54,31,11.72,11,22.84,22.61,34.55,33.6,10,9.43,14.51,13,25,21.72C467.81,294.16,468.4,290.23,467.47,289.47Z" transform="translate(-146.27 -184.38)"/><path class="cls-1" d="M482,287.46c-21.51-14.19-43.77-28.27-62.26-46.4-7.19-7.06-13.26-15.08-21.25-21.3a101.12,101.12,0,0,0-22.39-13c-16.43-7-33.64-11.29-51-15.27-1.65-.38-1.86,2.11-0.7,2.39l60.08,19.73A61.73,61.73,0,0,1,397.31,222c8.06,6.34,14,14.3,21.38,21.36,18.84,17.91,40.64,32.14,62.3,46.35C482.36,290.63,483.1,288.18,482,287.46Z" transform="translate(-146.27 -184.38)"/><path class="cls-1" d="M478.49,287.23c-16.92-11.65-34.45-22.82-50.29-35.95a181,181,0,0,1-22.52-21.89A53.46,53.46,0,0,0,395,219.45c-20.89-16.18-47.33-22.31-72.49-28.49-1.52-.38-0.51,2.11-0.34,2.45,0.44,1.14,1.59,4.86,3,5.27,24.21,7,49.15,12.56,69.47,28.36a59.38,59.38,0,0,1,10.89,10,191.8,191.8,0,0,0,23,21.91c15.75,13,33.1,24,49.63,35.95C479.65,296,479.82,288.14,478.49,287.23Z" transform="translate(-146.27 -184.38)"/><path class="cls-1" d="M479,281.31c-16.92-11.69-34.55-22.88-50.41-36.14a179.54,179.54,0,0,1-22.46-21.89,51.45,51.45,0,0,0-10.57-9.94c-21-16.2-47.6-22.37-72.89-28.44-1.5-.36-0.27,2.11-0.15,2.28,0.61,1.18,1.84,3.89,3.3,4.23,24.3,7.25,49.21,13.22,69.68,29a57.82,57.82,0,0,1,10.87,10,193.18,193.18,0,0,0,23,21.93c15.8,13,33.18,24.09,49.76,36.08,1.23,0.89,1.12-1.65,1.1-2C480.14,285.37,480.16,282.07,479,281.31Z" transform="translate(-146.27 -184.38)"/><path class="cls-1" d="M482.19,286.68c-16.92-11.74-34.51-22.9-50.37-36.16a181.86,181.86,0,0,1-22.54-21.91,52,52,0,0,0-10.68-9.94c-20.91-16.09-47.24-22.29-72.39-28.53-1.8-.44.19,2.83,0.25,2.92,0.82,1.5,2.62,5.6,4.46,6.2,12.69,4.08,25.67,7.42,38.06,12.48a131.36,131.36,0,0,1,31,17.4,61.9,61.9,0,0,1,10.93,9.9,201.89,201.89,0,0,0,23.26,21.72c15.88,13,33.24,24,49.76,36.16,1.54,1.14.68-3,.68-2.9C484.18,292.43,483.76,287.82,482.19,286.68Z" transform="translate(-146.27 -184.38)"/><path class="cls-1" d="M481.9,280.88c-12.69-8.69-25.57-17.17-37.92-26.33a441.47,441.47,0,0,1-41.7-38.64A67.4,67.4,0,0,0,390,207.19c-19.75-11.95-42.29-17.4-64.54-22.78-1.52-.36,0,2.11,0,2.11a8.61,8.61,0,0,0,3.64,3.55c24.62,7.49,49.57,14,70.29,30a110,110,0,0,1,21.34,20.68q6.07,5.67,12.5,10.91c15.88,13,33.29,24.11,49.93,36.1,1.29,0.93.74-2.11,0.74-2.11C483.63,284.42,483.16,281.75,481.9,280.88Z" transform="translate(-146.27 -184.38)"/><path class="cls-1" d="M476.27,284.1c-16.92-11.65-34.49-22.8-50.31-35.95a178.46,178.46,0,0,1-22.46-21.93,52.87,52.87,0,0,0-10.57-10C372,200.06,345.35,194.1,320.16,188c-1.9-.47,0,4.84,1.31,5.16,24.42,6.34,50.16,11.67,70.48,27.49a56.34,56.34,0,0,1,10.81,10.07,183.11,183.11,0,0,0,22.78,22.14C441.25,266,458.61,277,475.32,288.86,476.84,289.93,477.24,284.77,476.27,284.1Z" transform="translate(-146.27 -184.38)"/><path class="cls-1" d="M479.51,287.48A438.44,438.44,0,0,1,429,252.14a176.83,176.83,0,0,1-22.37-21.91,72.28,72.28,0,0,0-14.57-13c-20.55-14.06-45.93-19.86-69.79-25.38-1.48-.34-1.48,2-0.32,2.26,13.62,3.09,27.49,6,40.58,11.08,12.69,4.88,25.63,10.57,35.95,19.73q6.22,6.17,12.12,12.69a133.61,133.61,0,0,0,17.11,16.28,406,406,0,0,0,50.48,35.17C479.25,289.79,480.58,288.16,479.51,287.48Z" transform="translate(-146.27 -184.38)"/><path class="cls-1" d="M484.2,285q-12.46-8.46-25-17a219.13,219.13,0,0,1-47.41-40.41,96,96,0,0,0-15.1-13.45c-20.34-14-45.15-19.75-68.73-25.57-1.48-.36,0,2.11,0,2.11a8.16,8.16,0,0,0,3.47,3.51c13.13,4,26.43,7.4,39.19,12.56a150.14,150.14,0,0,1,19,9.09,64.48,64.48,0,0,1,15.73,11.72c10.57,9.18,19.69,19.46,30.52,28.32,15.88,13,33.29,24,49.93,35.95,1.31,0.93.66-2.11,0.66-2.11A9,9,0,0,0,484.2,285Z" transform="translate(-146.27 -184.38)"/><path class="cls-1" d="M477.67,283.17c-16.92-11.72-34.51-22.88-50.37-36.14a180.26,180.26,0,0,1-22.48-21.89,52.4,52.4,0,0,0-10.57-9.94c-21-16.18-47.5-22.35-72.72-28.44-1.54-.38-0.44,2.11-0.27,2.47,0.49,1.18,1.67,4.82,3.13,5.24,24.13,7.06,49,12.69,69.28,28.4a58.11,58.11,0,0,1,10.91,10,192.12,192.12,0,0,0,23.05,22c15.75,13,33.1,24,49.63,35.95C478.64,292,479,284.06,477.67,283.17Z" transform="translate(-146.27 -184.38)"/><path class="cls-1" d="M480.56,283.21c-17-11.65-34.58-22.86-50.44-36.12a180.81,180.81,0,0,1-22.5-21.89,51.56,51.56,0,0,0-10.57-9.94c-21-16.14-47.43-22.33-72.64-28.42-1.88-.44.32,3,0.36,3.13q1.37,2.37,2.92,4.63a5.9,5.9,0,0,0,1.9,2.11c12.69,4.12,25.38,7.46,37.71,12.5A132.76,132.76,0,0,1,398,226.49a60.8,60.8,0,0,1,11,9.92,203.8,203.8,0,0,0,23.26,21.78c15.88,13,33.22,24,49.7,36.2,1.59,1.16.74-3.11,0.74-3.09q-0.47-2.73-1.1-5.43A6,6,0,0,0,480.56,283.21Z" transform="translate(-146.27 -184.38)"/><path class="cls-1" d="M483.59,286.59c-16.92-11.48-34.17-22.52-49.84-35.61a180.55,180.55,0,0,1-22.46-21.82,71.2,71.2,0,0,0-14.59-13c-20.51-14.23-45.49-20-69.34-25.86-1.61-.4.53,3.81,1.48,4.06,26,7.15,54.6,13.7,75.39,32.25q6.34,6.15,12.27,12.54a141.09,141.09,0,0,0,17.3,16.11c15.82,13.09,33.24,24.13,50,36C486,292.7,484.77,287.4,483.59,286.59Z" transform="translate(-146.27 -184.38)"/><path class="cls-1" d="M476.44,285.87c-21.15-14.63-43.44-28.32-61.81-46.52C407.29,232.12,401.14,224,393,217.7c-20.87-16.2-47.69-22.1-72.85-28.06-1.88-.44-0.44,3.93.72,4.23a380.35,380.35,0,0,1,39.27,10.7,136.57,136.57,0,0,1,19.22,8.33,51.41,51.41,0,0,1,16,11.61c10.45,9.3,19.39,19.84,30.16,28.84,15.78,13.22,33.26,24.19,50,36.08C477,290.59,477.41,286.53,476.44,285.87Z" transform="translate(-146.27 -184.38)"/><path class="cls-1" d="M478.6,286.93a189.42,189.42,0,0,1-21.8-16.69l-10.3-9.16C435.25,251,424.25,240.77,412,231.84a144.82,144.82,0,0,0-25.5-15.31c-9.75-4.42-12.69-4.82-23.07-7.61-1.56-.42-1.37,2.22-0.23,2.54l32.86,12.92,10,6.34a245.52,245.52,0,0,1,23.77,18.86c7,6.09,13.77,12.33,20.68,18.46a305.74,305.74,0,0,0,27,21.15C478.91,290.15,479.63,287.69,478.6,286.93Z" transform="translate(-146.27 -184.38)"/><path class="cls-1" d="M475,286.7c-11.17-8.23-21.61-16.77-31.93-26-8.33-7.49-16.56-15.08-25.38-22.12a175.52,175.52,0,0,0-24.07-16.92l-10.57-5.5a106.43,106.43,0,0,0-22.63-7.63c-2.11-.57-0.34,7.44,1,7.8a76.68,76.68,0,0,1,16.47,5.35,86.7,86.7,0,0,1,15.56,7.63,226.64,226.64,0,0,1,24.09,16.92c8.84,7,17.09,14.8,25.57,22.2,10.24,9,20.7,17.64,31.47,26,1.23,1,1.18-1.73,1.18-2.11C476,291.18,476.23,287.54,475,286.7Z" transform="translate(-146.27 -184.38)"/><path class="cls-1" d="M475.62,280.78c-11.21-8.27-21.7-16.92-32.06-26.14-8.33-7.49-16.54-15.06-25.23-22.12a172.07,172.07,0,0,0-24-16.92l-10.57-5.48A104.55,104.55,0,0,0,361,202.49c-2-.53.11,6.68,1.46,7.06a130.62,130.62,0,0,1,32,13.26,230,230,0,0,1,24,16.92c8.82,7,17.09,14.8,25.57,22.14q15.44,13.53,31.72,26.07c1.21,1,1.08-1.76,1.08-2C476.78,284.75,476.76,281.6,475.62,280.78Z" transform="translate(-146.27 -184.38)"/><path class="cls-1" d="M478.79,286.15c-11.19-8.29-21.68-16.92-32.06-26.16-8.35-7.46-16.58-15.06-25.38-22.1a174.63,174.63,0,0,0-24-16.92l-10.45-5.48a104.85,104.85,0,0,0-22.56-7.63c-1.67-.47-0.42,2.52-0.27,2.94,0.44,1.29,1.73,6.34,3.32,6.94a134,134,0,0,1,31.72,13.62,251.66,251.66,0,0,1,24,16.92c8.84,7,17.11,14.65,25.65,22q15.54,13.43,31.72,26.05c1.54,1.21.61-3.07,0.66-2.9C480.84,291.77,480.39,287.33,478.79,286.15Z" transform="translate(-146.27 -184.38)"/><path class="cls-1" d="M478.47,280.33a477.35,477.35,0,0,1-37.28-30.77c-8-7.23-16-14.63-24.64-21.15a213.9,213.9,0,0,0-19.5-13.24,90.19,90.19,0,0,0-16-7.7,78.56,78.56,0,0,0-17.17-5.41c-1.73-.47,1,6.09,2.47,6.56a79.49,79.49,0,0,1,16.6,5.82,98.9,98.9,0,0,1,15.63,7.93,222,222,0,0,1,28.61,20.7c10.57,8.82,20.47,18.17,30.94,27,7.23,6.09,14.3,11.59,21.76,17.34,1.29,1,.7-2.11.7-2.11A9.22,9.22,0,0,0,478.47,280.33Z" transform="translate(-146.27 -184.38)"/><path class="cls-1" d="M472.91,283.59c-11.17-8.25-21.61-16.77-31.93-26.05-8.31-7.49-16.52-15.1-25.23-22.14a171.3,171.3,0,0,0-24.09-16.92L381.09,213a105.74,105.74,0,0,0-22.73-7.66c-2.11-.55-1.16,4.63,0,4.91a77.1,77.1,0,0,1,16.75,5.18A83.61,83.61,0,0,1,390.86,223,205.51,205.51,0,0,1,415,239.88c8.8,7.08,16.92,14.8,25.38,22.29,10.19,9.09,20.64,17.68,31.51,25.95C473.39,289.41,473.84,284.31,472.91,283.59Z" transform="translate(-146.27 -184.38)"/><path class="cls-1" d="M476.06,287a103.62,103.62,0,0,1-16.47-11.84q-8.06-6.45-15.63-13.51c-9.73-8.73-19.29-17.87-29.73-25.78a161.75,161.75,0,0,0-30.13-18.72c-9.18-4.23-13.53-5.1-23.26-7.7-1.44-.38-1.73,1.84-0.57,2.11l11.61,3.13a110.66,110.66,0,0,1,26.31,12.82,199.8,199.8,0,0,1,23.56,17.43c7,6,13.83,12.29,20.72,18.48q7.57,7.08,15.67,13.56a92.12,92.12,0,0,0,16.47,11.65C475.81,289.3,477.14,287.67,476.06,287Z" transform="translate(-146.27 -184.38)"/><path class="cls-1" d="M480.78,284.48c-12.69-9.41-24.87-19.62-36.65-30.24-8.18-7.38-16.37-15-25.16-21.59a216.38,216.38,0,0,0-19.5-13.26,91.25,91.25,0,0,0-16-7.7,79.24,79.24,0,0,0-17.15-5.48c-1.44-.4-0.47,1.88-0.36,2.11,0.42,1.1,1.56,3.83,2.85,4.23a137.67,137.67,0,0,1,32.42,13.94,240.65,240.65,0,0,1,24,16.92c12.2,9.75,23.43,20.64,35.44,30.62,7.13,5.94,14.4,11.57,21.76,17.21,1.29,1,.61-2.11.63-2.11A9.26,9.26,0,0,0,480.78,284.48Z" transform="translate(-146.27 -184.38)"/><path class="cls-1" d="M474.26,282.64c-11.19-8.29-21.65-16.92-32-26.14-9.77-8.73-19.33-17.89-29.8-25.8a127.07,127.07,0,0,0-52.68-26.37c-2.11-.57-0.36,7.53.93,7.89l21.74,7.55a108.76,108.76,0,0,1,15.12,8.56,224.65,224.65,0,0,1,23.81,17.47c7.13,6,14,12.33,21,18.52,10.24,9.07,20.72,17.68,31.49,26.1,1.23,1,1.23-1.69,1.23-2.11C475,287.23,475.38,283.46,474.26,282.64Z" transform="translate(-146.27 -184.38)"/><path class="cls-1" d="M477.14,282.68c-11.25-8.25-21.7-16.92-32.1-26.12-9.77-8.71-19.33-17.89-29.8-25.78a127,127,0,0,0-52.61-26.35c-1.73-.47-0.4,2.66-0.25,3.15q0.87,2.6,1.95,5.12a5.92,5.92,0,0,0,1.44,2.5l21.4,8a111.19,111.19,0,0,1,15,8.73A252.94,252.94,0,0,1,425.9,249.4c17.68,14.8,34.66,30.24,52.87,44.41,1.59,1.25.68-3.24,0.7-3.11q-0.49-2.73-1.18-5.41A6,6,0,0,0,477.14,282.68Z" transform="translate(-146.27 -184.38)"/><path class="cls-1" d="M480.67,286.57c-11.12-8.31-21.63-16.92-32-26.12-9.77-8.73-19.33-17.87-29.8-25.78A177.82,177.82,0,0,0,399,221.1l-10.57-5.5a106.84,106.84,0,0,0-22.78-7.7c-1.82-.51,0,4.23,1.16,4.5l11.44,3.38a90.93,90.93,0,0,1,16.14,7.38,81.76,81.76,0,0,1,14.8,9.33,151.3,151.3,0,0,1,18.72,13.91c7.06,6,13.87,12.22,20.77,18.38,10.3,9.14,20.87,17.64,31.72,26C482.55,292.43,481.64,287.31,480.67,286.57Z" transform="translate(-146.27 -184.38)"/><path class="cls-1" d="M473,285.37l-31.72-25.91L431,250.16c-8-7.11-16-14-24.59-20.28a155.39,155.39,0,0,0-20-12.48,134,134,0,0,0-28-10.21c-1.92-.51-1.4,3.6-0.34,3.89a103.88,103.88,0,0,1,22.37,7.25l10.4,5.37a194.21,194.21,0,0,1,33.84,25.08c8.71,7.68,17.13,15.69,25.95,23.26,7.85,6.7,13.32,10.81,21.46,17.07C473.54,290.17,474,286.06,473,285.37Z" transform="translate(-146.27 -184.38)"/><path class="cls-1" d="M472.91,294.52a234.33,234.33,0,0,1-25.38-21.34q-12-11.63-23.83-23.49a368.27,368.27,0,0,0-30.32-27.49A162.52,162.52,0,0,0,362.94,203c-9.66-4.5-12.94-5.16-23.26-8.1-1.54-.44-1.4,2.11-0.25,2.54l32.93,13.41a140.34,140.34,0,0,1,15,10,250.42,250.42,0,0,1,23.13,19.33c8.16,7.66,16.05,15.63,24,23.52q8.75,9,18.14,17.26a173.12,173.12,0,0,0,19,15.71C473.12,297.78,473.94,295.33,472.91,294.52Z" transform="translate(-146.27 -184.38)"/><path class="cls-1" d="M469.31,294.29a218,218,0,0,1-18.93-15.88Q441,270.1,432.2,261.13c-10.83-10.57-21.4-21.72-33-31.55A192.84,192.84,0,0,0,370,208.2l-10.57-5.63a120.54,120.54,0,0,0-22.33-8.08c-1.92-.59,0,7.25,1.42,7.74a159.87,159.87,0,0,1,31.19,13.58,203,203,0,0,1,28.91,21.25c11.59,10,22.29,21,33.31,31.72,11.88,11.53,24.09,22.52,36.77,33.16,1.18,1,1.25-1.65,1.27-2C470.05,298.73,470.41,295.18,469.31,294.29Z" transform="translate(-146.27 -184.38)"/><path class="cls-1" d="M469.86,288.35a217.11,217.11,0,0,1-19-16q-9.37-8.31-18.14-17.28c-10.81-10.57-21.36-21.72-32.93-31.55a191.65,191.65,0,0,0-29.2-21.36L360,196.53a119.19,119.19,0,0,0-22.63-8.1c-1.82-.55.49,6.51,1.88,7a166.74,166.74,0,0,1,31.28,13.87,207,207,0,0,1,28.91,21.4c11.57,10,22.29,21,33.31,31.61,11.93,11.53,24.17,22.54,36.9,33.22,1.16,1,1.18-1.65,1.18-1.92C470.79,292.39,471,289.24,469.86,288.35Z" transform="translate(-146.27 -184.38)"/><path class="cls-1" d="M472.91,293.74c-13.07-10.57-25.21-21.51-37.2-33.29-10.83-10.57-21.4-21.72-33-31.55a193.73,193.73,0,0,0-29.08-21.44l-10.57-5.63a122.65,122.65,0,0,0-22.33-8.1c-1.71-.53-0.25,2.69-0.15,3,0.55,1.46,1.88,6.2,3.57,6.85a180.72,180.72,0,0,1,30.94,14.38,222,222,0,0,1,28.78,21.46c11.59,10,22.33,20.89,33.41,31.47,12,11.46,24.3,22.48,37,33.18,1.5,1.27.74-3,.76-2.88C474.77,299.47,474.54,295,472.91,293.74Z" transform="translate(-146.27 -184.38)"/><path class="cls-1" d="M472.74,287.95a215.32,215.32,0,0,1-19-16q-9.39-8.31-18.14-17.26c-10.81-10.57-21.36-21.72-32.93-31.55a191.74,191.74,0,0,0-29.2-21.36l-10.57-5.65A120.64,120.64,0,0,0,340.3,188c-1.46-.44-0.34,2.11-0.23,2.24,0.59,1.23,1.67,3.76,3.09,4.23A178,178,0,0,1,374.7,209a216.65,216.65,0,0,1,28.89,21.49c11.55,10,22.27,20.89,33.26,31.47,12,11.5,24.28,22.48,37,33.12,1.25,1,.82-2.11.82-2.11A9.3,9.3,0,0,0,472.74,287.95Z" transform="translate(-146.27 -184.38)"/><path class="cls-1" d="M467.11,291.14a218,218,0,0,1-19-15.9q-9.39-8.31-18.17-17.3c-10.81-10.57-21.36-21.74-32.93-31.59A188.93,188.93,0,0,0,367.77,205l-10.57-5.58a119.4,119.4,0,0,0-22.46-8c-2-.59-0.8,4.57.34,4.91a147.06,147.06,0,0,1,31.72,13.13,189.69,189.69,0,0,1,29.08,21.15c11.55,10.07,22.23,21,33.16,31.72,11.82,11.61,24,22.59,36.77,33.16C467.41,296.85,468,291.9,467.11,291.14Z" transform="translate(-146.27 -184.38)"/><path class="cls-1" d="M470.39,294.52a179.74,179.74,0,0,1-25.27-20.83L433.17,262c-12.29-12.07-24.26-24.38-37.54-35.38a173.15,173.15,0,0,0-29.94-20.32q-2.77-1.61-5.67-3a111,111,0,0,0-22.82-8c-1.42-.42-1.76,1.8-0.59,2.11a76.57,76.57,0,0,1,22.27,8.31,91.31,91.31,0,0,1,20.85,11.44,245.07,245.07,0,0,1,23.54,18.88c9.81,8.84,19,18.29,28.46,27.49l12,11.69A163.65,163.65,0,0,0,469.1,296,1,1,0,0,0,470.39,294.52Z" transform="translate(-146.27 -184.38)"/><path class="cls-1" d="M475,292l-36.67-32.71q-9.09-9.2-18.44-18.12a289.28,289.28,0,0,0-24.32-21.59A216.75,216.75,0,0,0,375.76,206a144.45,144.45,0,0,0-33.05-13.81c-1.46-.44-0.32,2.11-0.23,2.11,0.61,1.23,1.67,3.64,3.09,4.23a170.72,170.72,0,0,1,41.72,21.15,310.57,310.57,0,0,1,28,23c12.2,11.21,23.64,23.26,35.8,34.47,8.71,8.06,16.22,14.3,25.38,21.87,1.25,1,.7-2.11.72-2.11A9.47,9.47,0,0,0,475,292Z" transform="translate(-146.27 -184.38)"/><path class="cls-1" d="M468.49,290.21a296.52,296.52,0,0,1-25.19-21.59l-12-11.67c-12.31-12.07-24.3-24.42-37.62-35.4a178.12,178.12,0,0,0-29.82-20.34,148.79,148.79,0,0,0-27.79-10.87c-1.92-.59,0,7.36,1.42,7.82a160,160,0,0,1,31.09,13.53A202.61,202.61,0,0,1,397.5,233c11.59,10.07,22.31,21,33.33,31.72,11.91,11.53,24.11,22.56,36.8,33.24C469,299.07,469.74,291.22,468.49,290.21Z" transform="translate(-146.27 -184.38)"/><path class="cls-1" d="M471.39,290.27a282.26,282.26,0,0,1-25.23-21.49l-12-11.67c-12.33-12.05-24.3-24.4-37.62-35.38a178.76,178.76,0,0,0-29.8-20.32,147.05,147.05,0,0,0-27.79-10.87c-1.76-.53-0.25,2.83-0.13,3.15q1,2.58,2.11,5.08a6,6,0,0,0,1.54,2.45,181.34,181.34,0,0,1,30.64,14.3,222.49,222.49,0,0,1,28.74,21.42c11.61,10,22.39,20.94,33.5,31.51q18,17.19,37,33.24c1.52,1.29.85-3.15,0.87-3.07q-0.36-2.75-.91-5.48A6,6,0,0,0,471.39,290.27Z" transform="translate(-146.27 -184.38)"/><path class="cls-1" d="M474.85,294a280.37,280.37,0,0,1-25.08-21.34l-12-11.65c-12.31-12.05-24.3-24.38-37.6-35.38A204.34,204.34,0,0,0,380.31,211a111.34,111.34,0,0,0-15.71-8.9,123.19,123.19,0,0,0-22.48-8.14c-1.71-.53.3,4.23,1.48,4.53a155.77,155.77,0,0,1,32.23,14.19A234.73,234.73,0,0,1,409,237.87c9.85,8.82,19,18.25,28.59,27.49,11.88,11.55,24.13,22.44,37,32.95C476.61,300,475.81,294.71,474.85,294Z" transform="translate(-146.27 -184.38)"/><path class="cls-1" d="M467.28,292.87A553.55,553.55,0,0,1,424.55,254q-8.88-8.95-18-17.59c-4.63-4.23-9.11-8.25-13.94-12.22A168.75,168.75,0,0,0,368,206.7l-10.57-5.58a117.33,117.33,0,0,0-22.52-7.93c-1.86-.55-1.14,3.57,0,3.89a113.18,113.18,0,0,1,21.68,7.53l10.57,5.48c14.8,8.21,27.32,19.52,39.54,31,11.72,11,22.84,22.61,34.55,33.6,10,9.43,14.51,13,25,21.72C467.62,297.57,468.21,293.61,467.28,292.87Z" transform="translate(-146.27 -184.38)"/><path class="cls-1" d="M481.85,290.87c-21.51-14.19-43.77-28.27-62.26-46.4-7.19-7.06-13.26-15.08-21.25-21.3a101.12,101.12,0,0,0-22.39-13c-16.45-7-33.67-11.19-51.07-15.25-1.65-.38-1.86,2.11-0.7,2.39l60.08,19.73a61.73,61.73,0,0,1,12.79,8.33c8.06,6.34,14,14.3,21.38,21.36,18.84,17.91,40.64,32.14,62.3,46.35C482.17,294,482.91,291.56,481.85,290.87Z" transform="translate(-146.27 -184.38)"/><path class="cls-1" d="M478.3,290.63C461.38,279,443.85,267.81,428,254.68a181,181,0,0,1-22.52-21.89,53.46,53.46,0,0,0-10.68-9.94c-20.89-16.18-47.33-22.31-72.49-28.49-1.52-.38-0.51,2.11-0.34,2.45,0.44,1.14,1.59,4.86,3,5.27,24.21,7,49.15,12.56,69.47,28.36a59.38,59.38,0,0,1,10.89,10,191.8,191.8,0,0,0,23,22c15.75,13,33.1,24,49.63,35.95C479.46,299.41,479.63,291.52,478.3,290.63Z" transform="translate(-146.27 -184.38)"/><path class="cls-1" d="M478.85,284.69c-16.92-11.69-34.55-22.88-50.41-36.14A179.54,179.54,0,0,1,406,226.66a51.45,51.45,0,0,0-10.57-9.94c-21-16.2-47.6-22.37-72.89-28.44-1.5-.36-0.27,2.11-0.15,2.28,0.61,1.18,1.84,3.89,3.3,4.23,24.3,7.25,49.21,13.22,69.68,29a57.82,57.82,0,0,1,10.87,10,193.18,193.18,0,0,0,23,21.93c15.8,13,33.18,24.09,49.76,36.08,1.23,0.89,1.12-1.65,1.1-2C480,288.77,480,285.47,478.85,284.69Z" transform="translate(-146.27 -184.38)"/><path class="cls-1" d="M482,290.08c-16.92-11.74-34.51-22.9-50.37-36.16A181.86,181.86,0,0,1,409.09,232a52,52,0,0,0-10.68-9.94C377.49,206,351.17,199.81,326,193.57c-1.8-.44.19,2.83,0.25,2.92,0.82,1.5,2.62,5.6,4.46,6.2,12.69,4.08,25.67,7.42,38.06,12.48a131.36,131.36,0,0,1,31,17.4,61.9,61.9,0,0,1,10.93,9.9A201.88,201.88,0,0,0,434,264.18c15.88,13,33.24,24,49.76,36.16,1.54,1.14.68-3,.68-2.9C484,295.81,483.48,291.16,482,290.08Z" transform="translate(-146.27 -184.38)"/><path class="cls-1" d="M481.71,284.27c-12.69-8.69-25.57-17.17-37.92-26.33a441.46,441.46,0,0,1-41.68-38.59,67.4,67.4,0,0,0-12.31-8.73c-19.75-11.95-42.29-17.4-64.54-22.78-1.52-.36,0,2.11,0,2.11a8.61,8.61,0,0,0,3.64,3.55c24.62,7.49,49.57,14,70.29,30a110,110,0,0,1,21.34,20.68q6.07,5.67,12.5,10.91c15.88,13,33.29,24.11,49.93,36.1,1.29,0.93.74-2.11,0.74-2.11C483.48,287.82,483,285.13,481.71,284.27Z" transform="translate(-146.27 -184.38)"/><path class="cls-1" d="M476.08,287.5c-16.92-11.65-34.49-22.8-50.31-35.95a178.46,178.46,0,0,1-22.46-21.93,52.87,52.87,0,0,0-10.57-10c-20.89-16.2-47.58-22.16-72.77-28.21-1.9-.47,0,4.84,1.31,5.16,24.42,6.34,50.16,11.67,70.48,27.49a56.34,56.34,0,0,1,10.81,10.07,183.11,183.11,0,0,0,22.78,22.14c15.71,13.11,33.07,24.11,49.78,35.95C476.65,293.25,477.14,288.18,476.08,287.5Z" transform="translate(-146.27 -184.38)"/><path class="cls-1" d="M479.25,290.87a438.44,438.44,0,0,1-50.48-35.34,176.83,176.83,0,0,1-22.37-21.91,72.28,72.28,0,0,0-14.57-13C371.28,206.59,345.9,200.8,322,195.28c-1.48-.34-1.48,2-0.32,2.26,13.62,3.09,27.49,6,40.58,11.08,12.69,4.88,25.63,10.57,35.95,19.73q6.22,6.17,12.12,12.69a133.61,133.61,0,0,0,17.11,16.28A406,406,0,0,0,478,292.49C479.06,293.17,480.39,291.54,479.25,290.87Z" transform="translate(-146.27 -184.38)"/><path class="cls-1" d="M484,288.41q-12.46-8.46-25-17A219.13,219.13,0,0,1,411.58,231a96,96,0,0,0-15.1-13.45c-20.34-14-45.15-19.75-68.73-25.57-1.48-.36,0,2.11,0,2.11a8.16,8.16,0,0,0,3.47,3.51c13.13,4,26.43,7.4,39.19,12.56a150.14,150.14,0,0,1,19,9.09,64.48,64.48,0,0,1,15.73,11.72c10.57,9.18,19.69,19.46,30.52,28.32,15.88,13,33.29,24,49.93,35.95,1.31,0.93.66-2.11,0.66-2.11A9,9,0,0,0,484,288.41Z" transform="translate(-146.27 -184.38)"/><path class="cls-1" d="M477.48,286.55c-16.92-11.72-34.51-22.88-50.37-36.14a180.26,180.26,0,0,1-22.48-21.8,52.4,52.4,0,0,0-10.57-9.94c-21-16.18-47.5-22.35-72.72-28.44-1.54-.38-0.44,2.11-0.27,2.47,0.49,1.18,1.67,4.82,3.13,5.24,24.13,7.06,49,12.69,69.28,28.4a58.11,58.11,0,0,1,10.91,10,192.12,192.12,0,0,0,22.92,21.87c15.75,13,33.1,24,49.63,35.95C478.45,295.43,478.77,287.44,477.48,286.55Z" transform="translate(-146.27 -184.38)"/><path class="cls-1" d="M480.37,286.61c-17-11.65-34.58-22.86-50.44-36.12a180.81,180.81,0,0,1-22.59-21.89,51.56,51.56,0,0,0-10.57-9.94c-21-16.14-47.43-22.33-72.64-28.42-1.88-.44.32,3,0.36,3.13q1.37,2.37,2.92,4.63a5.9,5.9,0,0,0,1.9,2.11c12.69,4.12,25.38,7.46,37.71,12.5a132.76,132.76,0,0,1,30.81,17.32,60.8,60.8,0,0,1,11,9.92,203.8,203.8,0,0,0,23.26,21.78c15.88,13,33.22,24,49.7,36.2,1.59,1.16.74-3.11,0.74-3.09q-0.47-2.73-1.1-5.43A6,6,0,0,0,480.37,286.61Z" transform="translate(-146.27 -184.38)"/><path class="cls-1" d="M483.48,289.93c-16.92-11.48-34.17-22.52-49.84-35.61a180.55,180.55,0,0,1-22.46-21.82,71.2,71.2,0,0,0-14.59-13c-20.51-14.23-45.49-20-69.34-25.86-1.61-.4.53,3.81,1.48,4.06,26,7.15,54.6,13.7,75.39,32.25q6.34,6.15,12.27,12.54a141.09,141.09,0,0,0,17.3,16.11c15.82,13.09,33.24,24.13,50,35.95C485.79,296.11,484.58,290.78,483.48,289.93Z" transform="translate(-146.27 -184.38)"/><path class="cls-1" d="M476.25,289.26c-21.15-14.63-43.44-28.32-61.81-46.52-7.34-7.23-13.49-15.33-21.63-21.65C371.93,204.88,345.12,199,320,193c-1.88-.44-0.44,3.93.72,4.23a380.35,380.35,0,0,1,39.27,10.7,136.57,136.57,0,0,1,19.22,8.33,51.41,51.41,0,0,1,16,11.61c10.45,9.3,19.39,19.84,30.16,28.84,15.78,13.22,33.26,24.19,50,36.08C476.8,294,477.14,289.93,476.25,289.26Z" transform="translate(-146.27 -184.38)"/><path class="cls-2" d="M621.11,303.26A42,42,0,0,0,609,308a93.78,93.78,0,0,0-11.38,7.68,207,207,0,0,0-25.08,21.15c-7.53,7.85-12.1,17.68-19,25.91a36.86,36.86,0,0,1-11.31,9.94,20.58,20.58,0,0,1-9.16,2.11c-0.66,0-.7,1-0.44,1.44a3.53,3.53,0,0,0,2.58.8,29.9,29.9,0,0,0,9.66-2.47,34.85,34.85,0,0,0,8.46-6.62c6.51-6.53,10.93-14.8,16.2-22.23,7.38-10.57,17.89-18.1,27.85-26A122.08,122.08,0,0,1,608.06,312a57.71,57.71,0,0,1,14.61-6.34C624.15,305.18,622.23,302.92,621.11,303.26Z" transform="translate(-146.27 -184.38)"/><path class="cls-2" d="M619.44,302A59.21,59.21,0,0,0,604,308.48,131.24,131.24,0,0,0,593,316.09a209.81,209.81,0,0,0-18.65,15,105.21,105.21,0,0,0-12.88,15.08c-4.91,6.79-9.16,14.25-15.5,19.86a23.77,23.77,0,0,1-14.23,6.34c-2.11.27-.72,1.29,0.57,1.71a16.92,16.92,0,0,0,8.18,1.06,31.32,31.32,0,0,0,13.72-6.83,122,122,0,0,0,9.92-10.74c17-19.31,34.93-42.29,61.64-48.79,1.59-.38-0.47-2.11-0.87-2.58C624.15,305.46,620.79,301.65,619.44,302Z" transform="translate(-146.27 -184.38)"/><path class="cls-2" d="M619.18,296.15a40.18,40.18,0,0,0-12.24,4.57,107.22,107.22,0,0,0-11.48,7.55,238.12,238.12,0,0,0-21.7,17.26,53.4,53.4,0,0,0-10,11.12Q559.57,342.17,556,348c-6.34,8.92-12.43,16.92-24.32,18.65-0.74.11-2,.42-1.35,1.44s3.47,0.38,4.23.23a28.17,28.17,0,0,0,13.77-6.09c8.46-7,14.49-17.07,21.15-25.59a90.32,90.32,0,0,1,14.11-13.45,176.51,176.51,0,0,1,15.14-11.27c3.64-2.37,7.34-4.61,11.17-6.66a58.85,58.85,0,0,1,14.8-5.33c1.46-.36-0.76-1.88-0.89-2C622.84,297.29,620.49,295.79,619.18,296.15Z" transform="translate(-146.27 -184.38)"/><path class="cls-2" d="M623.37,301.08a40.77,40.77,0,0,0-12.14,4.44,97.89,97.89,0,0,0-11.33,7.36A235.38,235.38,0,0,0,578.33,330a50.5,50.5,0,0,0-9.83,10.91,125,125,0,0,0-7.78,11.25c-6.56,9.11-12.9,17.4-25.06,19-2.11.3-.53,1.35,0.63,1.67a17.26,17.26,0,0,0,8,.55,32.23,32.23,0,0,0,13.43-6.75c8-6.87,13.89-16.11,20.3-24.36a84.29,84.29,0,0,1,13.47-12.82,165.13,165.13,0,0,1,14.7-11c3.43-2.24,6.92-4.36,10.57-6.34a56.48,56.48,0,0,1,14.32-5.1c1.73-.4-1.16-2.35-1.33-2.5C628.59,303.83,625,300.63,623.37,301.08Z" transform="translate(-146.27 -184.38)"/><path class="cls-2" d="M621.78,295.54a62.36,62.36,0,0,0-18.1,8.12c-3.72,2.43-7.3,5.18-10.85,7.87a185,185,0,0,0-16.49,13.3A107.85,107.85,0,0,0,561,343.35c-7,10.28-13.94,21-27.49,22.82a1,1,0,0,0-.89,1.42c0.38,0.78,2.31.36,2.9,0.27a23.41,23.41,0,0,0,9.18-2.69c7-3.83,12.18-10.89,16.81-17.11q5.22-7.78,11.12-15.08A140.55,140.55,0,0,1,588,319.41c11.55-9.07,23.26-17.36,37.64-21.15C628.28,297.67,623.2,295.14,621.78,295.54Z" transform="translate(-146.27 -184.38)"/><path class="cls-2" d="M616.71,299.47A40.29,40.29,0,0,0,604.53,304a103.45,103.45,0,0,0-11.44,7.55,241.69,241.69,0,0,0-21.63,17.3,52.74,52.74,0,0,0-9.9,11.1,131.93,131.93,0,0,0-7.8,11.36,96.06,96.06,0,0,1-8.8,11,22.75,22.75,0,0,1-16.41,7.89c-1.37.17-.61,1-0.15,1.5,0.8,0.8,4.63.78,5.69,0.55a30.73,30.73,0,0,0,13.66-6.49c7.08-5.94,12.41-14.11,17.87-21.42l5.48-7.11,6.79-6.2c5.14-4.53,10.57-8.84,16.07-12.84,4.23-3,8.46-5.82,12.94-8.46A52.38,52.38,0,0,1,621,304.36C622.86,303.93,617.91,299.11,616.71,299.47Z" transform="translate(-146.27 -184.38)"/><path class="cls-2" d="M618.82,303.64a41.51,41.51,0,0,0-12.12,4.69A94.45,94.45,0,0,0,595.35,316,257.54,257.54,0,0,0,573.8,333.5a51.32,51.32,0,0,0-9.75,11.1q-4.12,5.58-7.74,11.5A57.6,57.6,0,0,1,539.88,373a20.22,20.22,0,0,1-9.09,2.11c-0.74,0-.72,1-0.47,1.44a4.23,4.23,0,0,0,2.88.93,26.62,26.62,0,0,0,14.25-5.56c7.38-5.9,12.1-14.25,17.32-21.93a88.63,88.63,0,0,1,11.76-14.4c5-4.8,10.57-9,16-13.3a155.07,155.07,0,0,1,13.13-9.73A55.49,55.49,0,0,1,620,306.24C621.64,305.73,619.84,303.32,618.82,303.64Z" transform="translate(-146.27 -184.38)"/><path class="cls-2" d="M624.17,299.49a40.86,40.86,0,0,0-12.07,4.61,115.33,115.33,0,0,0-11.36,7.51A240,240,0,0,0,579,328.93a49.8,49.8,0,0,0-9.88,11,138.46,138.46,0,0,0-7.85,11.46,74.58,74.58,0,0,1-12.27,14,20.17,20.17,0,0,1-13,4.91c-1,.13-0.49,1.14-0.13,1.5a6.79,6.79,0,0,0,4.1.36,28.76,28.76,0,0,0,9-2.64,37.39,37.39,0,0,0,8.18-6.79c6.49-6.66,11.38-14.59,16.92-22,7.55-10,18.5-18,28.74-25.19a129,129,0,0,1,11-7,60.39,60.39,0,0,1,14.8-5.67C630.22,302.47,625.53,299.09,624.17,299.49Z" transform="translate(-146.27 -184.38)"/><path class="cls-2" d="M618.15,297.95a40.18,40.18,0,0,0-12.2,4.55A102.88,102.88,0,0,0,594.52,310a242.14,242.14,0,0,0-21.61,17.21,52.55,52.55,0,0,0-9.9,11.08,122.55,122.55,0,0,0-7.76,11.29,99.93,99.93,0,0,1-8.82,11A23.05,23.05,0,0,1,530,368.52c-1.4.19-.82,1.14,0,1.52a13.83,13.83,0,0,0,6.83,0,32.25,32.25,0,0,0,13.41-6.64c7.11-5.94,12.69-14,18.19-21.27l5.56-7,7-6.15a190.67,190.67,0,0,1,16.18-12.54,150.8,150.8,0,0,1,13.24-7.93,55,55,0,0,1,14.32-5.1c1.63-.38-0.85-2.11-1.06-2.35C622.76,300.4,619.61,297.55,618.15,297.95Z" transform="translate(-146.27 -184.38)"/><path class="cls-2" d="M621.42,297.86a39.8,39.8,0,0,0-12.16,4.53l-5.75,3.53a221.3,221.3,0,0,0-23.26,17.7,86.41,86.41,0,0,0-11.14,10.57q-4.23,5.39-7.91,11.12c-6.87,10.3-13.87,20.77-27.74,22.78-1.56.23-1,1.12,0,1.52a16.41,16.41,0,0,0,7.8,0,32.14,32.14,0,0,0,11.63-5.41c8-6.07,14-14.8,20.07-22.52l5.58-6.89,7.13-6.15a181.37,181.37,0,0,1,16.26-12.46,143.06,143.06,0,0,1,13.47-7.76,58.07,58.07,0,0,1,14.53-4.95c1.86-.42-1.67-2.45-1.67-2.43C627,300.3,623.18,297.38,621.42,297.86Z" transform="translate(-146.27 -184.38)"/><path class="cls-2" d="M623.5,301.78a42,42,0,0,0-12.22,4.57,90.93,90.93,0,0,0-11.42,7.53A203.79,203.79,0,0,0,574.67,335c-7.57,7.76-12.22,17.55-19.24,25.76a36.9,36.9,0,0,1-11.27,10,19.77,19.77,0,0,1-9,2.11c-0.87,0-.57,1.08-0.27,1.48a5.41,5.41,0,0,0,3.49.63,32.48,32.48,0,0,0,9.26-2.47,27.49,27.49,0,0,0,6.49-5.08c6.34-5.86,10.74-13,15.65-20a86.26,86.26,0,0,1,12.14-14.13,198.77,198.77,0,0,1,16.18-13.17,135.19,135.19,0,0,1,13.47-9.26,59.36,59.36,0,0,1,14.8-5.9C628.15,304.34,624.68,301.44,623.5,301.78Z" transform="translate(-146.27 -184.38)"/><path class="cls-2" d="M616.84,301.44A40.83,40.83,0,0,0,604.68,306a98.73,98.73,0,0,0-11.4,7.55,199.65,199.65,0,0,0-25.16,21c-7.55,7.8-12.41,17.45-19.31,25.78a41.75,41.75,0,0,1-7.42,7.44,19.67,19.67,0,0,1-12.54,4.53c-1.29.15-.78,0.89-0.32,1.48a10.13,10.13,0,0,0,5.5,1.14A29.61,29.61,0,0,0,546.27,370c8.14-5.94,13.66-14.8,19.46-22.78a84.76,84.76,0,0,1,11.88-13.49c5-4.61,10.43-8.84,15.88-12.94,4.23-3.11,8.31-6.13,12.69-8.82a52.43,52.43,0,0,1,14-5.79C622.33,305.67,618,301.12,616.84,301.44Z" transform="translate(-146.27 -184.38)"/><path class="cls-2" d="M595.56,328.15c-3.81,7.34-7,10.89-13.94,14.23a33.12,33.12,0,0,0-7.49,4.23c-2.45,2.11-3.93,5.43-6.72,7l2.62-.49c-4.82.15-7.4-2.11-12-1.5a24,24,0,0,0-8.46,3.13c-1.76.91,0.47,2.92,1.54,2.37,4.23-2.11,8.9-3.68,13.53-2.52a17.62,17.62,0,0,0,2.11.49,7.36,7.36,0,0,0,5.1-.93A10,10,0,0,0,574,352a31.26,31.26,0,0,1,11.23-8.33,39.8,39.8,0,0,0,8.46-5.86,31.72,31.72,0,0,0,6.75-9.81C601.36,326.31,596.15,327,595.56,328.15Z" transform="translate(-146.27 -184.38)"/><path class="cls-2" d="M593,325.06a25,25,0,0,1-13.22,14.25q-2.24,1.08-4.4,2.35A18.67,18.67,0,0,0,569,347a10,10,0,0,1-3.24,3.74l6.72-1.69L566,350.22l6.62-.49c-4.23,0-10.85-1.25-15.54-.61a23.11,23.11,0,0,0-9.47,4c-1.44.87,1.31,1.95,1.73,2.11,1.06,0.51,5.5,3,6.75,2.11A26.75,26.75,0,0,1,565,352.7a86.34,86.34,0,0,0,9.62-2.56,14.91,14.91,0,0,0,4.82-4.23c3.64-4,8.46-6.66,12.69-10a38.74,38.74,0,0,0,10.93-14.51c0.85-1.76-3.09,0-3-.13C598.35,322,593.89,323.26,593,325.06Z" transform="translate(-146.27 -184.38)"/><path class="cls-2" d="M592.11,320a26.52,26.52,0,0,1-16.71,15.84l-2.35,1.52a13.83,13.83,0,0,0-4.57,4.06,10.09,10.09,0,0,1-3.32,3.83l3.11-1.35c-2.39.61-6.92-.3-9.54-0.3A20.83,20.83,0,0,0,547,347.43c-1.23.72,1.16,1.48,1.31,1.52a6.75,6.75,0,0,0,4.38,0,17.59,17.59,0,0,1,11.19-3.34l-3.64-.49a8.21,8.21,0,0,0,4.8,1.95,12,12,0,0,0,5.39-2.88A29,29,0,0,0,573,341a35.7,35.7,0,0,1,9.92-7.13c6.07-3.47,9.58-8.46,12.69-14.8a0.89,0.89,0,0,0-.91-1.21A4.57,4.57,0,0,0,592.11,320Z" transform="translate(-146.27 -184.38)"/><path class="cls-2" d="M597,323.62l-2.58,5.14-7.19,7.32c-2.37,1.56-5.14,2.62-7.55,4.1a25.06,25.06,0,0,0-5.27,4c-1.48,1.54-2.81,4.23-4.74,5.22l6.34-1.65L569.93,349l6.34-.57c-4.23,0-10.7-1-15.27-.36a23,23,0,0,0-9.3,4c-1.48.91,1.67,1.9,1.95,2,1.27,0.47,5.56,2.45,6.94,1.61a41.18,41.18,0,0,1,8.59-4.23c2.62-.89,5.56-1.06,8.16-2.11a15.23,15.23,0,0,0,5.56-4.53,69.78,69.78,0,0,1,9.79-7.7,52.88,52.88,0,0,0,5.67-4.63,38.07,38.07,0,0,0,8.12-11.82c0.82-1.67-2.83-.25-2.81-0.25C601.91,320.89,597.87,322,597,323.62Z" transform="translate(-146.27 -184.38)"/><path class="cls-2" d="M594.17,320.11c-7.4,14.4-11.78,10.89-20.49,17.89-2.52,2.11-3.93,5.65-6.68,7.34l2.11-.63c-1.78,0-3.32-1.12-5.08-1.35A21.42,21.42,0,0,0,550,346.52c-2.11,1.14,2.26,2.24,3.32,1.71a18.55,18.55,0,0,1,11.88-2.85l-2.6-.47c1.67,1.16,3.3,2.6,5.46,2.11a8.12,8.12,0,0,0,4.23-3.4,25,25,0,0,1,7-6.6c2.11-1.27,4.4-2.11,6.47-3.4,5.43-3.28,8.21-7.89,11-13.26C597.44,318.78,594.76,318.95,594.17,320.11Z" transform="translate(-146.27 -184.38)"/><path class="cls-2" d="M590.25,323a24.32,24.32,0,0,1-12.9,14.08,40.63,40.63,0,0,0-8,4.61,38.55,38.55,0,0,0-5.82,7l1.5-1.1L562.36,349l4.34-1.8L562,348.36l4.42-.72c-3.76,0-8.63-1.21-12.58-.72a22.63,22.63,0,0,0-9.24,3.85c-1.61.93,4.63,3.62,5.9,2.88a21.15,21.15,0,0,1,12.69-4.23l-5.31-1c1.92,1.08,3.32,2.11,5.56,1.86a15.25,15.25,0,0,0,6.51-2.9c2.88-2.52,5.24-5.73,8.46-8,2-1.42,4.12-2.62,6.11-4,5.67-4,8.33-8.46,11.19-14.49,0.51-1.08-1.37-.55-1.59-0.49A8.59,8.59,0,0,0,590.25,323Z" transform="translate(-146.27 -184.38)"/><path class="cls-2" d="M593.09,328.46a24.51,24.51,0,0,1-13.81,14.21,36.48,36.48,0,0,0-7.27,4.06c-2.56,2.11-4,5.54-6.89,7.11l3-.59c-3.57.19-8.46-1.88-12.29-1.35a24.74,24.74,0,0,0-8.88,3.36c-1.56.82,1.37,2.71,2.41,2.11l7.66-2.81a23.26,23.26,0,0,1,5.46.27,31.33,31.33,0,0,0,3.28.47,7.21,7.21,0,0,0,5.18-1.76c1.73-1.65,2.81-2.88,4.86-4.63a20.53,20.53,0,0,1,7.46-5.1l4-2.22A34.55,34.55,0,0,0,598.35,328C599.26,326.43,593.7,327.26,593.09,328.46Z" transform="translate(-146.27 -184.38)"/><path class="cls-2" d="M597.57,323.77A24.91,24.91,0,0,1,584,337.83a37.17,37.17,0,0,0-7.11,4c-2.64,2.11-4,5.46-6.92,7.06l3.15-1.06-3.74.68,3.21-.23c-3.19-.27-5.86-1-9-1-4.53,0-7.4,1.42-11.25,3.49-1.1.59,0.68,1.48,1,1.59a5.2,5.2,0,0,0,3.7.34,20.39,20.39,0,0,1,12.43-2.92l-4-1a9.83,9.83,0,0,0,5.84,1.5,10,10,0,0,0,5.39-2.83,60.2,60.2,0,0,1,6.13-5.86c2.35-1.61,4.82-2.92,7.25-4.4,6-3.64,9.35-8.46,12.5-14.53,0.59-1.12-1.42-.82-1.69-0.76A5.18,5.18,0,0,0,597.57,323.77Z" transform="translate(-146.27 -184.38)"/><path class="cls-2" d="M591.71,321.08a35.65,35.65,0,0,1-17.47,16.58,13.94,13.94,0,0,0-3.66,2.52,40.37,40.37,0,0,0-5.52,6.77l1.67-1.23-1.56.87,4.91-1.86-6.34,1.82,5.05-1.12c-4.23.25-9.2-.82-13.45-0.17a23.43,23.43,0,0,0-9.2,4c-1.42.85,1.54,1.71,1.73,1.78,1.27,0.38,4.72,1.71,6,.89a21.55,21.55,0,0,1,12.22-4.63l-7.23-.89a9.58,9.58,0,0,0,5.24,2.26,15.78,15.78,0,0,0,7.25-3,70.09,70.09,0,0,0,5.86-5.54,89.55,89.55,0,0,1,9.09-7,35,35,0,0,0,11.12-14.65c0.53-1.1-1.46-.47-1.67-0.38A10,10,0,0,0,591.71,321.08Z" transform="translate(-146.27 -184.38)"/><path class="cls-2" d="M594.95,320.87a27.87,27.87,0,0,1-17.13,16.2,27.14,27.14,0,0,0-3.7,2.54c-2.37,2-3.79,5.5-6.56,7l5.46-2.11-5.5,1.54,5.75-1.16c-4.65,0-10.43-.74-14.93.25a25.84,25.84,0,0,0-8.78,3.91c-1.54,1,2.11,1.76,2.11,1.78,1.5,0.38,5.58,1.8,7.08.85a23,23,0,0,1,12-4.8l-8.46-.78a10.21,10.21,0,0,0,6.56,1.82,18.12,18.12,0,0,0,8-3.66,20.47,20.47,0,0,0,2.11-2.43,53.32,53.32,0,0,1,9.39-7.74,49.63,49.63,0,0,0,7.49-6.34,34.41,34.41,0,0,0,6.24-10.28c0.74-1.56-2.54,0-2.41,0A11.06,11.06,0,0,0,594.95,320.87Z" transform="translate(-146.27 -184.38)"/><path class="cls-2" d="M597.19,326.2c-3.7,7.25-6.89,10.78-13.64,14.15a33.83,33.83,0,0,0-7.4,4.23c-2.43,2.11-3.93,5.35-6.7,6.89l3-.76c-4.57.49-7.49-1.69-11.91-1a26.14,26.14,0,0,0-9,3.45c-1.59.85,2.54,2.58,3.6,2.11a19.2,19.2,0,0,1,13.79-2.56l-2.71-.57a8.31,8.31,0,0,0,10.26-2.39,35.34,35.34,0,0,1,3.68-3.93,49.88,49.88,0,0,1,7.46-4.48,34,34,0,0,0,10.07-8.1,28.08,28.08,0,0,0,4.76-7.59C603.26,324,597.8,325,597.19,326.2Z" transform="translate(-146.27 -184.38)"/><path class="cls-2" d="M590.46,325.44a24.28,24.28,0,0,1-13.56,14.17,33.83,33.83,0,0,0-7.08,4.12,12.25,12.25,0,0,0-3.49,3.43,8.67,8.67,0,0,1-3.49,3.85l4.67-1.35-5,.8,4.55-.27c-4.4-.27-8.46-1.71-12.88-1.18a22.42,22.42,0,0,0-9.26,3.79c-1.73,1,4.12,4.06,5.29,3.38l4.23-2.43q4.72-.7,9.45-1.33a30,30,0,0,0,3.26-.72,11.4,11.4,0,0,0,6-4.23c3.91-4.23,9-6.77,13.58-10.28A36.67,36.67,0,0,0,597.4,323c0.7-1.44-2.11-.4-2.26-0.38C593.76,323.14,591.18,324,590.46,325.44Z" transform="translate(-146.27 -184.38)"/><path class="cls-2" d="M575.53,344.92a165.37,165.37,0,0,1-38.64,26.77c-2,1.1,1.54,2.62,2.6,2.11a159.66,159.66,0,0,0,27.11-17.07q6.17-5,12.31-10.11C580.31,345.38,576.53,344.13,575.53,344.92Z" transform="translate(-146.27 -184.38)"/><path class="cls-2" d="M573.59,342.32A131.24,131.24,0,0,1,555,357.12a126.56,126.56,0,0,1-20.28,12.37c-1.71,1,2.71,1.63,2.45,1.59,1.84,0.27,5.86,1.29,7.61.23a159.68,159.68,0,0,0,20.45-12.9,192.85,192.85,0,0,0,18.48-14.17c1.44-1.16-2.35-1.59-2.45-1.61C579.72,342.38,574.94,341.17,573.59,342.32Z" transform="translate(-146.27 -184.38)"/><path class="cls-2" d="M573.15,336.63a130.43,130.43,0,0,1-18.57,14.8,122.21,122.21,0,0,1-20.2,12.35c-0.93.53-.32,1.14,0.25,1.5a7.68,7.68,0,0,0,4.5-.74,129,129,0,0,0,20.13-12.69,154.14,154.14,0,0,0,18.36-14.61C579.7,335.57,574.1,335.82,573.15,336.63Z" transform="translate(-146.27 -184.38)"/><path class="cls-2" d="M577.61,341.13a136.41,136.41,0,0,1-18.67,14.8,127.3,127.3,0,0,1-20.28,12.39c-1.69,1,2.75,1.48,2.41,1.44,1.88,0.19,5.48.85,7.23-.19a152.26,152.26,0,0,0,20.34-12.88,185.85,185.85,0,0,0,18.52-14.34c1.44-1.16-2.39-1.42-2.39-1.44C583.19,340.69,579,340,577.61,341.13Z" transform="translate(-146.27 -184.38)"/><path class="cls-2" d="M575.34,336.2A137.14,137.14,0,0,1,556.71,351a119.69,119.69,0,0,1-20.17,12.31c-0.66.36-.15,1.23,0.25,1.5a4.23,4.23,0,0,0,3-.51,121.85,121.85,0,0,0,20.13-12.48,153.84,153.84,0,0,0,18.48-14.65C580,335.87,576.32,335.4,575.34,336.2Z" transform="translate(-146.27 -184.38)"/><path class="cls-2" d="M570.54,340.35a170,170,0,0,1-38.91,27.13c-1.42.8,1.92,1.35,1.8,1.33a9.66,9.66,0,0,0,5.22-.51q7-3.91,13.81-8.16a244.92,244.92,0,0,0,24.93-19c1.21-1-1.63-1.33-1.76-1.35A8.21,8.21,0,0,0,570.54,340.35Z" transform="translate(-146.27 -184.38)"/><path class="cls-2" d="M573.25,345.23A176.68,176.68,0,0,1,534.64,372c-2.11,1.21,1.88,2.77,2.9,2.11A134.51,134.51,0,0,0,551.91,366,228.79,228.79,0,0,0,577,347C578.47,345.93,574.18,344.47,573.25,345.23Z" transform="translate(-146.27 -184.38)"/><path class="cls-2" d="M578.2,340.5a140.84,140.84,0,0,1-18.25,14.4,120.82,120.82,0,0,1-20.24,12.35c-2.28,1.29,3,2.11,4.08,1.52a124.41,124.41,0,0,0,20.3-12.58,182.27,182.27,0,0,0,19-14.8c1-.78-1-1.29-1.23-1.35A4.88,4.88,0,0,0,578.2,340.5Z" transform="translate(-146.27 -184.38)"/><path class="cls-2" d="M572.11,338.57a169.33,169.33,0,0,1-38.3,26.81c-1.48.85-.49,1.4,0.85,1.52a12.82,12.82,0,0,0,6.72-1q7-3.87,13.7-8.21a246.55,246.55,0,0,0,25-19c1.35-1.1-2.26-1.14-2.11-1.14C576.34,337.58,573.42,337.49,572.11,338.57Z" transform="translate(-146.27 -184.38)"/><path class="cls-2" d="M575.62,338.15a173.93,173.93,0,0,1-39,27.22c-1.69,1,2.94,1.14,2.45,1.14a14.8,14.8,0,0,0,6.79-1.06,148.62,148.62,0,0,0,20.17-12.86,184.15,184.15,0,0,0,18.52-14.51c1.44-1.18-2.62-1.1-2.41-1.1C580.44,337.05,577.06,336.92,575.62,338.15Z" transform="translate(-146.27 -184.38)"/><path class="cls-2" d="M577.54,342.93A167.23,167.23,0,0,1,539,369.68c-2.11,1.25,2.41,2.45,3.47,1.86a162.83,162.83,0,0,0,27-17.15q6.22-5,12.39-10.09C583.19,343.18,578.54,342.13,577.54,342.93Z" transform="translate(-146.27 -184.38)"/><path class="cls-2" d="M571,342.29a130,130,0,0,1-18.65,14.8,123.64,123.64,0,0,1-20.2,12.35c-1.4.78,1.61,1.52,1.65,1.54a9,9,0,0,0,5.29.11,141.68,141.68,0,0,0,20.47-12.69A169.4,169.4,0,0,0,578,344.07c1.16-1-1.33-1.48-1.63-1.54C575.11,342.21,572,341.41,571,342.29Z" transform="translate(-146.27 -184.38)"/><path class="cls-2" d="M576.13,336.75a165.37,165.37,0,0,1-38.64,26.77c-2,1.1,1.54,2.62,2.6,2.11a159.69,159.69,0,0,0,27.11-17.07q6.17-5,12.31-10.11C580.91,337.24,577,336,576.13,336.75Z" transform="translate(-146.27 -184.38)"/><path class="cls-2" d="M574.18,334.17A131.12,131.12,0,0,1,555.55,349a126.56,126.56,0,0,1-20.28,12.37c-1.71,1,2.71,1.63,2.45,1.59,1.84,0.27,5.86,1.29,7.61.23a159.72,159.72,0,0,0,20.45-12.9,192.79,192.79,0,0,0,18.48-14.17c1.44-1.16-2.35-1.59-2.45-1.61C580.31,334.24,575.53,333,574.18,334.17Z" transform="translate(-146.27 -184.38)"/><path class="cls-2" d="M573.74,328.46a130.41,130.41,0,0,1-18.57,14.8A122.21,122.21,0,0,1,535,355.62c-0.93.53-.32,1.14,0.25,1.5a7.68,7.68,0,0,0,4.5-.74,129,129,0,0,0,20.13-12.69,154.1,154.1,0,0,0,18.36-14.61C580.29,327.43,574.67,327.66,573.74,328.46Z" transform="translate(-146.27 -184.38)"/><path class="cls-2" d="M578.2,333a136.38,136.38,0,0,1-18.67,14.8,127.33,127.33,0,0,1-20.28,12.39c-1.69,1,2.75,1.48,2.41,1.44,1.88,0.19,5.48.85,7.23-.19a152.26,152.26,0,0,0,20.34-12.88,185.79,185.79,0,0,0,18.52-14.34c1.44-1.16-2.39-1.42-2.39-1.44C583.78,332.61,579.57,331.83,578.2,333Z" transform="translate(-146.27 -184.38)"/><path class="cls-2" d="M575.94,328a137.11,137.11,0,0,1-18.63,14.8,119.72,119.72,0,0,1-20.17,12.31c-0.66.36-.15,1.23,0.25,1.5a4.23,4.23,0,0,0,3-.51,121.86,121.86,0,0,0,20.13-12.48A153.82,153.82,0,0,0,579,329C580.55,327.72,576.89,327.26,575.94,328Z" transform="translate(-146.27 -184.38)"/><path class="cls-2" d="M571.14,332.23a170,170,0,0,1-38.91,27.13c-1.42.8,1.92,1.35,1.8,1.33a9.66,9.66,0,0,0,5.22-.51q7-3.91,13.81-8.16A244.85,244.85,0,0,0,578,333c1.21-1-1.63-1.33-1.76-1.35A8.21,8.21,0,0,0,571.14,332.23Z" transform="translate(-146.27 -184.38)"/><path class="cls-2" d="M573.84,337.09a176.66,176.66,0,0,1-38.64,26.86c-2.11,1.21,1.88,2.77,2.9,2.11a134.51,134.51,0,0,0,14.38-8.12,228.71,228.71,0,0,0,25.08-19C579.07,337.79,574.77,336.33,573.84,337.09Z" transform="translate(-146.27 -184.38)"/><path class="cls-2" d="M578.79,332.36a140.78,140.78,0,0,1-18.25,14.4,120.83,120.83,0,0,1-20.24,12.35c-2.28,1.29,3,2.11,4.08,1.52A124.43,124.43,0,0,0,564.69,348a182.23,182.23,0,0,0,19-14.8c1-.78-1-1.29-1.23-1.35A4.88,4.88,0,0,0,578.79,332.36Z" transform="translate(-146.27 -184.38)"/><path class="cls-2" d="M572.7,330.45a169.3,169.3,0,0,1-38.3,26.81c-1.48.85-.49,1.4,0.85,1.52a12.82,12.82,0,0,0,6.72-1q7-3.87,13.7-8.21a246.49,246.49,0,0,0,25-19c1.35-1.1-2.26-1.14-2.11-1.14C576.93,329.44,574,329.33,572.7,330.45Z" transform="translate(-146.27 -184.38)"/><path class="cls-2" d="M576.19,330.11a173.93,173.93,0,0,1-39,27.22c-1.69,1,2.94,1.14,2.45,1.14a14.8,14.8,0,0,0,6.79-1.06,148.66,148.66,0,0,0,20.17-12.86,184.15,184.15,0,0,0,18.52-14.51c1.44-1.18-2.62-1.1-2.41-1.1C581,328.91,577.65,328.78,576.19,330.11Z" transform="translate(-146.27 -184.38)"/><path class="cls-2" d="M578.14,334.79a167.23,167.23,0,0,1-38.53,26.75c-2.11,1.25,2.41,2.45,3.47,1.86a162.83,162.83,0,0,0,27-17.15q6.22-5,12.39-10.09C583.78,335,579.11,334,578.14,334.79Z" transform="translate(-146.27 -184.38)"/><path class="cls-2" d="M571.56,334.15A130,130,0,0,1,552.91,349a123.67,123.67,0,0,1-20.28,12.33c-1.4.78,1.61,1.52,1.65,1.54a9,9,0,0,0,5.29.11A141.68,141.68,0,0,0,560,350.25a169.34,169.34,0,0,0,18.48-14.34c1.16-1-1.33-1.48-1.63-1.54C575.68,334.07,572.62,333.26,571.56,334.15Z" transform="translate(-146.27 -184.38)"/><path class="cls-2" d="M590.78,320.3A165.39,165.39,0,0,1,552.15,347c-2,1.1,1.54,2.62,2.6,2.11a159.71,159.71,0,0,0,27.11-17.07Q588,327,594.17,322C595.56,320.79,591.71,319.54,590.78,320.3Z" transform="translate(-146.27 -184.38)"/><path class="cls-2" d="M588.84,317.72a131.24,131.24,0,0,1-18.63,14.8,126.54,126.54,0,0,1-20.28,12.37c-1.71,1,2.71,1.63,2.45,1.59,1.84,0.27,5.86,1.29,7.61.23a159.7,159.7,0,0,0,20.45-12.9,192.81,192.81,0,0,0,18.48-14.17c1.44-1.16-2.35-1.59-2.45-1.61C595,317.79,590.19,316.58,588.84,317.72Z" transform="translate(-146.27 -184.38)"/><path class="cls-2" d="M588.39,312a130.43,130.43,0,0,1-18.57,14.8,122.23,122.23,0,0,1-20.2,12.35c-0.93.53-.32,1.14,0.25,1.5a7.68,7.68,0,0,0,4.5-.74,129,129,0,0,0,20.13-12.69,154.12,154.12,0,0,0,18.36-14.61C595,311,589.34,311.21,588.39,312Z" transform="translate(-146.27 -184.38)"/><path class="cls-2" d="M592.88,316.54a136.4,136.4,0,0,1-18.67,14.8,127.28,127.28,0,0,1-20.28,12.39c-1.69,1,2.75,1.48,2.41,1.44,1.88,0.19,5.48.85,7.23-.19a152.26,152.26,0,0,0,20.34-12.88,185.81,185.81,0,0,0,18.52-14.34c1.44-1.16-2.39-1.42-2.39-1.44C598.46,316.14,594.25,315.31,592.88,316.54Z" transform="translate(-146.27 -184.38)"/><path class="cls-2" d="M590.61,311.61A137.11,137.11,0,0,1,572,326.41a119.69,119.69,0,0,1-20.17,12.31c-0.66.36-.15,1.23,0.25,1.5a4.23,4.23,0,0,0,3-.51,121.86,121.86,0,0,0,20.13-12.48,153.83,153.83,0,0,0,18.48-14.65C595.22,311.25,591.56,310.81,590.61,311.61Z" transform="translate(-146.27 -184.38)"/><path class="cls-2" d="M585.81,315.76a170,170,0,0,1-38.89,27c-1.42.8,1.92,1.35,1.8,1.33a9.66,9.66,0,0,0,5.22-.51q7-3.91,13.81-8.16a244.84,244.84,0,0,0,24.93-19c1.21-1-1.63-1.33-1.76-1.35A8.2,8.2,0,0,0,585.81,315.76Z" transform="translate(-146.27 -184.38)"/><path class="cls-2" d="M588.5,320.64a176.66,176.66,0,0,1-38.61,26.77c-2.11,1.21,1.88,2.77,2.9,2.11a134.53,134.53,0,0,0,14.38-8.12,228.72,228.72,0,0,0,25.08-19C593.72,321.34,589.43,319.86,588.5,320.64Z" transform="translate(-146.27 -184.38)"/><path class="cls-2" d="M593.45,315.88a140.82,140.82,0,0,1-18.25,14.4A120.82,120.82,0,0,1,555,342.63c-2.28,1.29,3,2.11,4.08,1.52a124.41,124.41,0,0,0,20.3-12.58,182.24,182.24,0,0,0,19-14.8c1-.78-1-1.29-1.23-1.35A4.88,4.88,0,0,0,593.45,315.88Z" transform="translate(-146.27 -184.38)"/><path class="cls-2" d="M587.36,314A169.32,169.32,0,0,1,549,340.81c-1.48.85-.49,1.4,0.85,1.52a12.82,12.82,0,0,0,6.72-1q7-3.87,13.7-8.21a246.49,246.49,0,0,0,25-19c1.35-1.1-2.26-1.14-2.11-1.14C591.59,313,588.69,312.88,587.36,314Z" transform="translate(-146.27 -184.38)"/><path class="cls-2" d="M590.87,313.56a173.94,173.94,0,0,1-39,27.13c-1.69,1,2.94,1.14,2.45,1.14a14.8,14.8,0,0,0,6.79-1.06,148.66,148.66,0,0,0,20.17-12.86,184.15,184.15,0,0,0,18.52-14.51c1.44-1.18-2.62-1.1-2.41-1.1C595.69,312.46,592.33,312.33,590.87,313.56Z" transform="translate(-146.27 -184.38)"/><path class="cls-2" d="M592.81,318.33a167.23,167.23,0,0,1-38.53,26.75c-2.11,1.25,2.41,2.45,3.47,1.86a162.83,162.83,0,0,0,27-17.15q6.22-5,12.39-10.09C598.46,318.57,593.78,317.43,592.81,318.33Z" transform="translate(-146.27 -184.38)"/><path class="cls-2" d="M586.24,317.7a130,130,0,0,1-18.65,14.8,123.67,123.67,0,0,1-20.28,12.33c-1.4.78,1.61,1.52,1.65,1.54a9,9,0,0,0,5.29.11,141.68,141.68,0,0,0,20.47-12.69,169.35,169.35,0,0,0,18.48-14.34c1.16-1-1.33-1.48-1.63-1.54C590.36,317.62,587.27,316.81,586.24,317.7Z" transform="translate(-146.27 -184.38)"/><path class="cls-2" d="M606.28,314.34a152.85,152.85,0,0,1-25.38,20.34A130.69,130.69,0,0,1,564,344.79c-2,1.12,1.61,2.6,2.66,2a215.29,215.29,0,0,0,27.79-18.1c7-5.56,6.85-5.54,15.2-12.69C611.13,314.72,607.17,313.56,606.28,314.34Z" transform="translate(-146.27 -184.38)"/><path class="cls-2" d="M604.32,311.72a195.33,195.33,0,0,1-20.22,16.92,175.79,175.79,0,0,1-22.23,13.87c-1.71,1,2.79,1.59,2.5,1.54,1.86,0.25,5.86,1.16,7.61,0a190.32,190.32,0,0,0,22.44-14.8q10.32-7.7,20-16.09c1.42-1.18-2.39-1.52-2.5-1.54C610.47,311.63,605.63,310.53,604.32,311.72Z" transform="translate(-146.27 -184.38)"/><path class="cls-2" d="M603.83,306a198.79,198.79,0,0,1-20.15,17,174.92,174.92,0,0,1-22.14,13.81c-1,.55-0.3,1.14.25,1.48a7.72,7.72,0,0,0,4.5-.78,182.07,182.07,0,0,0,22-14.17,260,260,0,0,0,19.92-16.77C610.36,304.86,604.76,305.2,603.83,306Z" transform="translate(-146.27 -184.38)"/><path class="cls-2" d="M608.25,310.53A207.46,207.46,0,0,1,588,327.45a175.18,175.18,0,0,1-22.23,13.91c-1.69,1,2.79,1.44,2.43,1.42,1.9,0.17,5.48.76,7.23-.3a185.7,185.7,0,0,0,22.31-14.63q10.36-7.78,20.09-16.35c1.4-1.18-2.41-1.37-2.43-1.37C613.94,310,609.67,309.33,608.25,310.53Z" transform="translate(-146.27 -184.38)"/><path class="cls-2" d="M606,305.65a219.17,219.17,0,0,1-20.2,17,174.85,174.85,0,0,1-22.1,13.77c-0.66.38-.15,1.23,0.27,1.48a4.23,4.23,0,0,0,3-.53,180,180,0,0,0,22-14,260,260,0,0,0,20-16.92C610.58,305.22,607,304.74,606,305.65Z" transform="translate(-146.27 -184.38)"/><path class="cls-2" d="M601.27,309.77a187.07,187.07,0,0,1-42.44,30.92c-1.42.82,2,1.31,1.84,1.31a9.83,9.83,0,0,0,5.22-.61,191.07,191.07,0,0,0,21.72-14.08c7.21-5.33,13.7-11,20.53-16.75,1.18-1-1.67-1.29-1.78-1.29A8.18,8.18,0,0,0,601.27,309.77Z" transform="translate(-146.27 -184.38)"/><path class="cls-2" d="M603.87,314.66a185.08,185.08,0,0,1-42.15,30.45c-2.11,1.21,1.95,2.71,3,2.11a183.34,183.34,0,0,0,22.61-14c7.4-5.37,13.41-10.78,20.26-16.77C609.12,315.21,604.76,313.83,603.87,314.66Z" transform="translate(-146.27 -184.38)"/><path class="cls-2" d="M608.93,309.92a231.24,231.24,0,0,1-19.81,16.6,175.12,175.12,0,0,1-22.18,13.83c-2.28,1.31,3,2.11,4.12,1.46a180.48,180.48,0,0,0,22.27-14.13q10.57-8.12,20.47-16.92c1-.8-1-1.27-1.25-1.33A4.86,4.86,0,0,0,608.93,309.92Z" transform="translate(-146.27 -184.38)"/><path class="cls-2" d="M602.81,308A186.9,186.9,0,0,1,561,338.57c-1.48.85-.44,1.42,0.87,1.5a12.94,12.94,0,0,0,6.72-1.08,194.85,194.85,0,0,0,21.51-14.11c7.25-5.41,13.81-11.1,20.68-16.92,1.31-1.12-2.28-1.08-2.11-1.08C607,306.85,604,306.85,602.81,308Z" transform="translate(-146.27 -184.38)"/><path class="cls-2" d="M606.33,307.55a150.93,150.93,0,0,1-15.08,13,153.23,153.23,0,0,1-27.49,18c-1.69,1,3,1.1,2.47,1.12a15,15,0,0,0,6.79-1.14,186.76,186.76,0,0,0,22.06-14.57q10.38-7.91,20.11-16.58c1.4-1.21-2.62-1-2.41-1.06C611.1,306.37,607.72,306.3,606.33,307.55Z" transform="translate(-146.27 -184.38)"/><path class="cls-2" d="M608.25,312.37a155.79,155.79,0,0,1-25.38,20.28,131.12,131.12,0,0,1-16.79,10.13c-2.11,1.25,2.47,2.41,3.51,1.8a221.08,221.08,0,0,0,27.64-18.19c6.58-5.22,7.7-6.34,15.25-12.69C614,312.5,609.24,311.53,608.25,312.37Z" transform="translate(-146.27 -184.38)"/><path class="cls-2" d="M601.69,311.72a195.33,195.33,0,0,1-20.26,17,174.58,174.58,0,0,1-22.23,13.81c-1.4.8,1.67,1.5,1.67,1.5a9.11,9.11,0,0,0,5.29,0,184,184,0,0,0,22.46-14.46q10.36-7.76,20-16.37c1.14-1-1.37-1.46-1.69-1.5C605.84,311.53,602.71,310.81,601.69,311.72Z" transform="translate(-146.27 -184.38)"/><path class="cls-2" d="M564.86,358.62l-9.16,6.62a41.22,41.22,0,0,1-8.46,2.79c-4.86,1.25-9.79,2-14.8,2.79-1.92.3,0.7,2.54,1.95,2.33a110.37,110.37,0,0,0,21.42-5A40.18,40.18,0,0,0,568.7,360C570,358.75,565.79,357.8,564.86,358.62Z" transform="translate(-146.27 -184.38)"/><path class="cls-2" d="M562.74,355.85a20.39,20.39,0,0,1-6.85,5.6,46.8,46.8,0,0,1-25.38,7.32c-2,.34,2.75,2.11,2.11,1.88a16.54,16.54,0,0,0,7.3,1.21,98.56,98.56,0,0,0,18-5.37l5.58-2.62a33.05,33.05,0,0,0,9.45-7.53c1.37-1.31-2.69-1.25-2.69-1.25C568.75,355,564.14,354.52,562.74,355.85Z" transform="translate(-146.27 -184.38)"/><path class="cls-2" d="M562.15,350.27A27.64,27.64,0,0,1,548.4,359a102.73,102.73,0,0,1-18,4c-1.21.21-.42,1.16,0,1.52,0.82,0.72,3.93.23,4.91,0a106.47,106.47,0,0,0,16.33-4.44c1.76-.7,3.64-1.44,5.33-2.31a38.83,38.83,0,0,0,9.39-7.34c0.68-.66.15-1.16-0.47-1.44A6.34,6.34,0,0,0,562.15,350.27Z" transform="translate(-146.27 -184.38)"/><path class="cls-2" d="M566.78,354.6A32.21,32.21,0,0,1,547,365.18q-5.79,1.35-11.67,2.31c-2.11.36-.76,1.27,0.57,1.71a17.07,17.07,0,0,0,8,.93A118.43,118.43,0,0,0,558.28,366c2.26-.85,3.85-1.5,6.07-2.56a43.82,43.82,0,0,0,12.1-8.78c1.35-1.29-2.62-1.14-2.56-1.14C572.17,353.57,568.07,353.38,566.78,354.6Z" transform="translate(-146.27 -184.38)"/><path class="cls-2" d="M564.26,350a34.3,34.3,0,0,1-19.54,10.21q-5.58,1.23-11.25,2.11c-0.8.15-1.37,0.49-1,1.37s2.5,0.53,3.07.4c7.46-1.44,15.23-2.77,22.1-6.22a34.62,34.62,0,0,0,9.54-7.19,1,1,0,0,0-.32-1.37l-0.13-.07A3.26,3.26,0,0,0,564.26,350Z" transform="translate(-146.27 -184.38)"/><path class="cls-2" d="M559.61,354l-8.82,6.66a41.65,41.65,0,0,1-8.25,2.85,143.67,143.67,0,0,1-14.42,2.88c-1.14.19-1,1-.23,1.5a10.57,10.57,0,0,0,5.73.87,98,98,0,0,0,20.28-6,40.58,40.58,0,0,0,12.52-8.95c1.12-1.1-1.9-1.06-1.92-1.06A8.46,8.46,0,0,0,559.61,354Z" transform="translate(-146.27 -184.38)"/><path class="cls-2" d="M562.4,358.92l-9,6.66a39.59,39.59,0,0,1-8.33,2.79c-4.86,1.25-9.79,2-14.8,2.79-2.11.34,0.93,2.69,2.11,2.47a108.76,108.76,0,0,0,21.36-5,39.4,39.4,0,0,0,12.84-8.27C568.07,359.13,563.33,358.07,562.4,358.92Z" transform="translate(-146.27 -184.38)"/><path class="cls-2" d="M567.73,353.82a36.14,36.14,0,0,1-14.8,9,126.55,126.55,0,0,1-17.15,3.62c-1,.17-0.57,1.08-0.19,1.5a7,7,0,0,0,4.23.51A100.79,100.79,0,0,0,557,364.25l5.52-2.31a30,30,0,0,0,9.35-7C573.89,353.08,568.6,353,567.73,353.82Z" transform="translate(-146.27 -184.38)"/><path class="cls-2" d="M561.24,352.21a39.25,39.25,0,0,1-17,9.56c-4.76,1.31-9.56,2.11-14.42,3-1.35.23-1,1-.11,1.5a13.81,13.81,0,0,0,6.94.51,104.69,104.69,0,0,0,19.9-6.34,41.38,41.38,0,0,0,12.39-9.14c1.23-1.21-2.39-.8-2.22-0.85A11,11,0,0,0,561.24,352.21Z" transform="translate(-146.27 -184.38)"/><path class="cls-2" d="M564.75,351.66l-8.69,6.68a43.67,43.67,0,0,1-8.31,3c-4.76,1.35-9.58,2.11-14.44,3.09-1.5.27-1.14,1,0,1.5a39.42,39.42,0,0,0,7.93.44,89.86,89.86,0,0,0,22.46-7.91,42.29,42.29,0,0,0,9.77-7.93c1.31-1.29-2.69-.78-2.45-0.82A12.69,12.69,0,0,0,564.75,351.66Z" transform="translate(-146.27 -184.38)"/><path class="cls-2" d="M566.8,356.63a40.54,40.54,0,0,1-17.38,9.43A139,139,0,0,1,535,368.83c-0.87.13-.63,1-0.32,1.48a5.5,5.5,0,0,0,3.53.74,98.61,98.61,0,0,0,20.43-5.16,40.6,40.6,0,0,0,12.69-8.46C572.62,356.4,567.77,355.74,566.8,356.63Z" transform="translate(-146.27 -184.38)"/><path class="cls-2" d="M560.12,355.93l-4.38,4.12a37.3,37.3,0,0,1-12.69,5.52,141.53,141.53,0,0,1-14.55,2.88c-1.25.19-.89,0.76-0.38,1.46a10.07,10.07,0,0,0,5.41,1.4,95.26,95.26,0,0,0,20.91-5.86,43.2,43.2,0,0,0,12.88-8.9c1.14-1.08-1.71-1.27-1.88-1.29C564.14,355.22,561.22,354.92,560.12,355.93Z" transform="translate(-146.27 -184.38)"/><path d="M332.13,189.27c28.36,2.11,40.33,5.33,59.38,15.73,27.49,14.63,40.56,24.15,63.61,46.76,12.18,11.74,25.27,22.37,28.8,23.71,5.54,2,6,2,2.11-.44-2.43-1.33-14.4-12.18-26.6-23.94-23.26-22.37-38.06-33-65.37-47.88-23.49-12.86-36.8-16.18-61.83-15.73l-21.27.21Z" transform="translate(-146.27 -184.38)"/><path d="M224,194.6c0.66,0.89,8.86,2.66,18,3.76,33.84,4.23,58.07,16.39,94,48.09,29.48,25.93,36.8,31.47,52.74,41.22,12.18,7.32,12.69,8,5.54,6.64-28.36-5.1-47.2-10.19-52.87-14.4-3.55-2.43-12.18-13.07-19-23.26A184.61,184.61,0,0,0,300.56,230c-8.21-7.08-34.79-22.37-34.79-19.94,0,0.44,6.87,4.88,15.29,10,13.75,8.21,35.68,29.48,35.68,34.79,0,1.1-4.44-3.11-10-9.3A100.11,100.11,0,0,0,262.35,216c-17.51-6-21.15-5.33-4.23.89,20.83,7.76,32.8,15.73,45.66,30.13,7.08,8.21,12.18,12.18,13.07,10.57s2.88,0.21,5.1,4.23a61.05,61.05,0,0,0,10.19,13.75c7.76,7.53,6.2,8.21-10,3.76s-25-9.3-39-22.37c-13.3-12.69-39-30.13-52.3-35.95-4.44-1.78-16.18-5.1-25.93-7.53l-18-4.23,17.72,0.66c18.17,0.66,30.58,5.1,49.86,17.28l7.76,4.88-6.64-5.75a127.79,127.79,0,0,0-18.84-12c-10.19-5.1-15.52-6.34-32.12-6.87-12.69-.44-22.37.21-26.6,2-6.34,2.66-6,2.88,9.75,4.65,35.46,3.76,63.17,17.07,92.62,44.41,8.86,8.46,15.52,15.08,14.8,15.08-2.11,0-14.4-9.09-29-21.49-13.51-11.29-33.84-23.05-45-25.93-3.11-.66,0,1.33,6.64,4.44,12.69,6,32.35,19.5,47.64,32.8,7.76,6.87,8.21,7.53,3.32,6.34-3.11-.66-11.08-5.75-17.72-10.85a146.49,146.49,0,0,0-25.48-15.73c-12.18-5.75-15.29-6.2-40.33-6.2-14.8,0-27.49-.66-28.36-1.33-4-4.23,33.45-8.65,45.87-5.54,3.55,0.89,3.11.21-1.54-2a39,39,0,0,0-14.4-3.11c-7.32-.21-48.09,9.54-50.52,12-1.54,1.33,10.43,2,47.2,2l28.8,0.21,16,8.46c8.65,4.65,17.51,10.57,19.73,13.07,4,4.23,4,4.23-2.43,2.88a19.37,19.37,0,0,1-8.86-4.44c-4.65-5.54-26.6-10.57-47.64-11.08-11.53-.21-23.49-1.1-26.6-2-5.1-1.33-5.33-1.33-1.1,1.33,2.66,1.54,15.73,3.32,31,4s28.36,2.43,31,4.23c4.23,2.66,4,2.66-1.1,1.33-12.18-2.88-28.15-3.76-35.46-1.78-6.64,1.78-5.1,2.11,10,2.11,9.75-.21,19.73,1.1,22.16,2.43,3.55,2,.89,2.43-14.8,2.66-23.05,0-42.78-5.54-55.41-15.52-4.88-4-9.3-6.64-10-6-2,2.11,17.07,14.63,30.13,19.5,10.57,4.23,16.39,4.88,40.18,4.65,21.15,0,31.91.89,45.42,4.23,9.75,2.66,18.61,5.1,19.94,6,3.11,2-28.15,6.64-45.42,6.87a116.08,116.08,0,0,1-51.41-12c-6-2.88-10.57-4.65-10.57-3.76,0,2,23.26,13.75,27.26,13.75,1.54,0,3.76,2.11,4.88,4.88s8.65,9.54,16.62,14.8c14.19,9.54,14.63,9.54,30.37,8.65,12.69-.89,19.5-2.88,35.68-10.57,10.85-5.1,21.15-9.09,22.37-8.65,4.23,1.54-32.57,19.94-43.65,22.16l-10.43,1.78,12-.89c8.86-.66,16-3.32,29.48-11.29,20.62-12.18,31.47-14,54.28-9.54l15.08,2.88-14,2.88a270.2,270.2,0,0,0-34.34,10.43c-32.8,12.18-56.5,13.75-77.78,4.88-4.44-1.78-8-2.66-8-1.78s4.65,3.55,10.57,6c18.4,7.76,40.18,6,75.79-6.2s54.28-15.08,76.89-12c17.51,2.66,20.39,4.65,9.09,6.87-4,.66-18.61,6.87-32.35,13.51-28.8,14-43.88,18.84-57.1,18.84-12.41,0-14-2.88-3.55-6.34a103.75,103.75,0,0,0,18.17-10.19c13.3-9.54,25.93-15.73,36.35-17.51,4.65-.89,8-2,7.32-2.66-2.88-3.11-25.71,5.1-38.06,13.51-7.53,5.33-16.92,11.08-20.17,12.86-8.65,4.44-24.15,6.87-28.36,4.44-2.43-1.33,2-3.32,15.29-7.08,10.43-2.88,19.5-6.2,20.39-7.53s0-1.78-2.88-.66c-10.85,4.65-31.47,10.19-37,10.19-9.75,0-6,4.65,7.53,9.3,9.09,3.32,16.18,4,29.61,3.55,16.39-.89,20.17-2,48.74-15.52,17.07-8,34.79-15.73,39.67-17.07,10.19-2.66,9.75-2-3.55,5.1a186.94,186.94,0,0,0-23.05,15.29,97.78,97.78,0,0,1-21.49,12.69c-4.65,1.54-8,3.11-7.53,3.55,2.43,2.43,19.94-6,32.35-15.52,14.8-11.53,39.44-23.49,47.2-23.26,5.1,0,5.1.21-.44,2.43a262.23,262.23,0,0,0-46.52,25.27c-19,13.3-34.58,17.72-51,14.63-14.4-2.66-17.28-1.78-5.1,1.54,19.73,5.54,35.23,1.1,63.82-18.17,19.29-13.07,33-19.5,46.76-22.16,6.2-1.1,5.54,0-11.29,17.51C421,338.4,411,346.38,403,350.14c-6.64,3.11-9.54,5.1-6.34,4.23,13.3-3.32,25.71-11.74,38.06-25.93,13.3-14.63,23.94-22.61,28.8-21.15,1.54,0.66-1.1,3.11-5.33,5.75s-13.51,11.29-20.39,19S421.65,348.7,417,351.37a66,66,0,0,0-9.75,7.32c-1.78,2.66-31,4.65-36.56,2.66-2.88-1.1.21-2.88,10.43-6.34,19.5-6.64,33.69-15.29,41.89-25.71,10.57-13.3,8.21-12.69-5.75,1.54-10.43,10.43-16,14.19-29,18.84-8.86,3.32-18.17,6-20.62,6s-4,.89-3.11,2-0.66,2.43-2.66,3.11,1.1,1.54,7.08,2.43a63.44,63.44,0,0,1,17.72,4.88c8.86,4.88,31.72,6.34,44.41,3.32,7.08-1.78,11.29-2,13.07-.44,4.23,3.55,26.81-.89,37.66-7.32a313.19,313.19,0,0,0,27.91-21.15,235,235,0,0,1,36.56-24.59C556,313,562.64,309,561,309c-7.08,0-40.33,19.73-54.52,32.57-19.73,17.51-38.34,27.26-52.09,27.26H444.25l11.53-6.64c6.2-3.55,19.73-14.8,29.92-24.83C508.31,315,515.84,309,521.65,309c3.55,0,2.43,1.33-4.23,5.75-9.54,6.2-25.48,20.83-25.48,23.05,0,0.89,4.65-2.88,10.43-8.21A124,124,0,0,1,526.75,313c15.08-7.32,22.37-7.32,8,.21-9.3,4.88-24.59,15.73-21.93,15.73a51.39,51.39,0,0,0,11.29-6.64c12.41-8.65,29.61-15.29,39-15.08a53.69,53.69,0,0,0,12.86-1.54c9.75-3.32,3.11,2.66-16,14.19-20.83,12.69-33,24.15-38.06,36.56-4.88,11.74-2.43,12.69,2.88.89,5.75-13.07,12.41-19.5,34.58-33.84,20.62-13.3,24.15-14.8,17.72-7.53-4.23,4.88-4.23,4.88.66,2.11,6-3.11,8.65-6.87,4.65-6.87-1.78,0-1.54-1.1.89-3.55,2-2,4.65-2.88,6.2-2s0.66,3.55-3.76,8.21c-7.53,8.21-17.72,13.51-21.15,11.53q-2.33-1.67-.66,1.33c1.33,2,.89,2.66-1.54,1.78-3.55-1.33-9.54,1.33-9.54,4.23a37,37,0,0,1-6.2,9.75c-8.21,10.85-7.53,14,.89,3.55,3.55-4.44,12.86-11.74,20.39-16.18a139.8,139.8,0,0,0,23.43-17.59c9.54-9.09,10.85-9.54,26.6-11.08l16.62-1.54-10.19,6.64c-11.29,7.32-20.62,16.39-42.55,40.77C564.75,366.55,550.1,375,530.62,377c-6.87.66-12.41,2.11-12.41,3.11,0,2.66,2.88,2.43,20.39-1.1,18-4,28.15-10.19,43.88-26.81,31.26-33,42.1-43.2,52.74-48.53,13.75-6.87,17.72-7.53,7.08-1.1-9.09,5.54-21.15,15.29-18.61,15.29a37.87,37.87,0,0,0,8.46-5.1,99,99,0,0,1,12.41-8.21l5.54-2.88-4.63,5.2c-2.43,2.88-10.57,14-18.17,24.38-17.51,24.59-25.48,31.47-44.09,37.66-8.21,2.66-14,5.33-12.86,5.75,4.65,1.54,28.8-8.46,37-15.08,11.29-8.86,10.85-5.1-.44,4.65-6.2,5.33-8.21,8.65-6.87,10.57,1.54,2.43,5.1,2.11,19.29-1.78,36.56-10.19,63.82-29.92,90.64-65.37,15.08-19.94,20.39-25.48,24.83-25.48,2.88,0,2,1.78-3.11,7.08a104.07,104.07,0,0,0-13.75,21.27c-8.65,17.07-19.94,28.36-39.44,39-8.21,4.44-12.69,7.53-9.54,6.64,18.4-4.65,43.2-26.16,52.3-45.21,3.55-7.32,6.87-13.3,7.53-13.3,2.43,0,1.1,41.22-1.54,45.87-4.88,8.21-3.32,7.76,7.08-2,11.29-10.57,13.75-16.92,15.52-36.8a65.24,65.24,0,0,1,3.55-18.61c2.66-4.88,2.66-4.88,4.23-.66a45.57,45.57,0,0,0,8.65,10.85c3.76,3.76,6.87,8.86,6.87,11.53a8.73,8.73,0,0,0,2.11,6.34c1.33,0.66,2.11-1.1,2.11-4.23s-3.55-9.75-8.86-15.73c-14.4-16.92-10.85-20.83,4.23-4.44,10,10.85,10.85,14.8,5.75,27-4.23,10-2.66,12.41,2,3.11,6.34-12.41,4.65-21.27-6.87-33.69-5.54-6-9.75-11.29-9.3-11.53s10-4.23,20.83-8.21c36.8-13.51,56.5-23.71,56.5-28.8,0-2.43-.44-4.44-1.1-4.44s-10,4.23-20.62,9.54c-25.93,13.07-49,22.37-50.52,20.83-2.43-2.43,3.76-10.43,13.3-16.92,8.86-6,14.8-15.73,10-15.73a2.69,2.69,0,0,0-2,3.11c0,3.32-10,12.41-13.51,12.41-1.1,0,0-3.32,2.43-7.32,7.08-12.41,6.64-25.27-1.33-33.45-7.32-7.08-9.54-7.32-8.65-.89,4,26.81,4,27.91-1.33,36.35l-5.1,8.46-1.78-8.21a71.16,71.16,0,0,0-5.16-15.16A67,67,0,0,1,750.95,207c-1.33-11.08-1.54-11.53-3.32-5.75-1.33,4.65,0,10.57,5.33,24.59,3.76,10,6.64,21.49,6.64,25.71-0.21,6-.66,6.34-1.33,2a161.28,161.28,0,0,0-7.76-21.15c-3.76-8.46-6.87-19-6.87-23.71s-0.89-7.76-1.78-7.08c-4,2.43-1.78,15.08,5.75,33,4.23,10.43,7.53,21.27,7.32,24.15-0.44,5.33-.66,5.33-4.65,1.78a55.45,55.45,0,0,1-9.54-13.75c-2.88-5.54-5.1-8.65-5.33-7.08,0,4.44,6.64,16.39,13.07,23.26,4,4.23,4.44,5.75,2,4.88s-8.46-7.76-13.75-15.29c-12.41-17.28-23.26-27-37.9-33.69-12-5.33-38.06-9.75-35.95-6,0.89,1.33,7.53,2.88,14.8,3.55,22.16,2.43,35.95,11.53,54.52,36.12,6.64,9.09,13.07,16.39,14.4,16.39a2.11,2.11,0,0,1,2,2.11c0,1.1-5.1.21-11.29-2-12-4.65-26.37-13.51-26.37-16.39a2.26,2.26,0,0,0-2.66-1.54c-5.1,0,6.34,9.54,20.39,16.92,16.62,8.46,14.8,9.75-3.76,2.66-10.57-4-16.18-8.46-34.79-27.7-24.38-25.27-36.8-33-56.74-35-8.46-.89-10.85-0.44-7.76.89A33,33,0,0,0,636.88,211c12.86,0.44,28.15,10.57,51.41,34.34,17.51,18,24.83,24.15,34.13,27.7,6.34,2.66,8.86,4.23,5.1,3.55-7.53-1.54-25-9.54-36.56-16.62l-7.76-4.88,6.64,6a94.13,94.13,0,0,0,17.72,11.29c6.34,3.11,9.3,5.33,6.64,5.33-6.87,0-27.49-10.43-38.78-19.5-5.54-4.44-18.84-16-29.48-25.48-25.48-22.61-45.21-32.35-68.26-33.69l-16.39-.89,16.62,2.66c24.15,4,42.78,13.75,65.56,34.13,10.85,9.54,24.15,21.15,29.61,25.48,10.85,8.65,31,19.5,36.56,19.5a3,3,0,0,1,3.32,2.43c0,3.76-11.53.89-27.91-6.87-9.09-4.44-20.62-13.07-33-24.83-10.43-9.75-19.5-17.28-20.17-16.92-2.66,2.88,37.66,37,51.64,43.88,14.8,7.32,15.08,7.53,8.46,9.3-8,2.11-21.27.66-42.55-5.1-28.59-7.53-40.18-14-60.5-33.84-19.29-19-30.81-27.26-47.88-34.58-14.8-6.34-11.74-3.55,6.34,6,10.57,5.54,23.05,15.08,37,28.59,23.26,22.16,35.46,29,66.49,37.24,18.84,5.1,18.84,5.1,10,6.64-4.88.66-18.61,2.43-30.58,3.55-33,2.88-45.66-2.66-76.89-34.34C517.25,224.53,490.88,207,462.44,201c-8.86-1.78-16.62-2.66-17.28-2.11-1.33,1.54,1.33,2.11,18.4,5.75,26.6,5.54,54.73,24.59,89.09,60.5,12,12.69,22.37,21.27,31,25.71,7.08,3.76,11.29,6.64,9.3,6.87-9.3.21-26.81-12.41-49.42-35.68-13.3-13.51-24.38-23.94-25-23.26-2,2,49,51.64,56.5,54.73,3.76,1.78,7.08,3.76,7.08,4.65,0,1.78-29.61,3.11-43.2,2.11-3.55-.44-15.73-4.65-27.26-9.54s-21.49-8.46-22.16-7.76,2.11,2.66,6.34,4.44c23.49,10,29,12.69,27.91,13.75-0.66.66-5.75-.44-11.29-2.11-12.69-4.44-14.8-4.44-9.3-.21,8,6-.44,3.32-18.84-6A106.48,106.48,0,0,1,452.4,269.4c-7.32-7.76-16.18-15.52-19.5-17.28-3.76-2.11.89,3.76,12.18,15.52,13.51,13.75,22.61,20.83,33.84,26.6,8.65,4.23,14.19,7.76,12.69,8s-14.46-5.94-29.27-13.22c-28.72-14.19-55-32.9-66.17-46.76-3.76-4.65-7.76-8.65-8.86-8.65-4,0,12.41,18.17,26.37,29.25a292.28,292.28,0,0,0,31,21.15c9.3,5.54,14.63,9.3,11.53,8.46-7.53-2-21.93-9.54-28.59-14.63-2.88-2.43-5.75-3.76-6.34-3.11-1.78,1.78,5.75,6.87,22.61,15.52C459,298,466.71,300,464.07,295.77c-0.89-1.33,1.33-1.1,4.88.44,9.75,4.23,10,5.1,1.1,4.88-14.19-.21-32.12-6.87-52.09-19.5-10.57-6.64-18.84-11.08-18-10,1.78,2.88,30.58,21.49,38.34,24.59,4.44,2,4.88,2.66,2,3.32-2,.44-8.86-1.78-15.52-5.1-23.71-12-38.55-23.26-53.63-40.77-8.46-9.75-15.73-17.28-16.39-16.62-1.1,1.1,21.72,27.26,32.12,36.8a179.88,179.88,0,0,0,21.72,15.08c18,11.08,10.57,10.85-11.08-.21-15.73-7.76-29.25-17.72-53.18-39.23-38.06-34.13-72.47-51.85-105.93-54.73C229.72,193.72,223.1,193.72,224,194.6Zm555.55,18.17c4,8.86,2.88,14.19-6.2,33-6.64,13.51-8.86,16.39-8.86,12a12.69,12.69,0,0,1,2.88-8.65c1.78-1.33,4.88-6.87,6.87-12,3.32-8.65,3.32-10.57.44-20.83-2.66-8.86-2.88-11.08-.66-10.19A15.88,15.88,0,0,1,779.54,212.77ZM297.77,283.46c-4.88,1.54-15.08,5.33-22.61,8.65a78.24,78.24,0,0,1-25.48,6c-9.3,0-10.57.44-6.64,2,6.64,2.88,22.61-.44,39.23-8,13.3-6,48.53-10.85,41-5.54a15.8,15.8,0,0,1-8.86,1.1c-3.55-.89-10,1.1-18.4,5.54-14.19,7.76-33.84,13.51-46.1,13.51-8,0-30.37-12.41-37.24-20.83-3.11-3.55-2.66-3.76,4.88-2.66,19.29,3.11,23.49,3.11,40.33.44A309.41,309.41,0,0,1,291,280.57h15.52Zm452.55,2.66c-1.78,3.55-3.76,7.76-4.65,9.54s-0.66.44,0-3.32c1.1-6,4.65-12.18,6.64-12.18,0.66,0-.44,2.62-2,5.94ZM743,291c-0.89,3.55-.21,7.08,1.1,7.76,6,3.76-.21,34.79-7.53,37.66-2.11.89-3.11-1.1-2.88-7.32a53.35,53.35,0,0,0-1.54-13.3,43.88,43.88,0,0,1,.21-14.19l1.78-9.3,2.66,14.4,2.66,14.4-0.21-15.73c0-13.75,1.33-20.83,4-20.83,0.61,0,.34,2.88-0.28,6.43Zm-41.89.21a1.35,1.35,0,0,0,1.33,2.11c1.54,0,.89,2-1.78,4.88a85.27,85.27,0,0,0-9.54,15.08,75.14,75.14,0,0,1-9.54,14.8c-2.43,2.88-3.32,5.1-2,5.1s4.88-3.76,7.76-8.46c8-12.41,18-30.13,18.17-31.91a6.85,6.85,0,0,1,2-3.32c1.1-1.1,1.33-.66.44,0.89-1.78,3.32,2.11,4,4.23.66a5.16,5.16,0,0,1,4.44-2.11c4,0-8.86,18.4-25.48,36.12-17.51,18.84-52.3,42.55-60.5,41.22a30.43,30.43,0,0,0-10.85,3.11,38.32,38.32,0,0,1-13.3,3.76c-4.44,0-4.23-.66,3.55-8.65,4.65-4.88,8-9.54,7.32-10.57-1.1-1.78,4-9.09,25.27-37.9,6.2-8.46,18.4-18.4,14.4-11.74-2.66,4.23,2.11,2.66,6.64-2.11a40.56,40.56,0,0,1,8.65-6.87c2.43-1.1,1.1.44-2.88,3.76-10,8.21-19.94,23.26-25,38.06a83.36,83.36,0,0,1-10.19,20.39l-5.75,8,6.34-6c3.76-3.55,9.75-13.75,13.75-23.49,8.46-20.39,18.17-32.8,31.72-39.88,5.33-2.66,7.76-3.76,5.54-2.11-14.4,9.75-32.35,30.58-32.35,37.45,0,1.54,2.88-1.54,6.34-7.08,8-12.41,21.15-24.59,32.35-30.37,10.49-5.69,10.72-5.69,8.95-2.81v0ZM478.39,311.4c-11.53,5.1-31,17.72-31,20.39,0,0.89,5.75-2.11,12.86-7.08,11.74-8,30.37-15.73,37.66-15.73,2.66,0,2.66.66,0.44,3.32-1.78,2-2,3.32-.44,3.32a5.16,5.16,0,0,0,3.76-2.11,5,5,0,0,1,4-2.11c5.33,0.21-42.55,43.88-54.28,49.63-15.73,7.76-33.69,11.29-46.52,9.3-10.85-1.54-14.63-5.75-5.54-5.75,8.21-.21,29-9.75,44.09-20.39a324,324,0,0,1,31.72-19.29l17.72-9.54-19.92,19.29c-10.85,10.85-16,16.62-11.08,13.3,18.33-13.6,38.93-36.86,32.23-36.86-2.11,0-39.44,21.49-53.42,31-22.16,14.8-23.26,14.19-5.33-4.23,19.29-19.94,36.12-31.26,46.31-31,6.51,0,6.3.32-3.24,4.53v0Z" transform="translate(-146.27 -184.38)"/><path d="M264.76,287.23c-5.1,2.88-30.13,3.55-41.22,1.1-6.87-1.54-7.32-1.33-3.32,1.1,6.64,4.44,38.34,3.76,46.52-.89,3.76-2.11,5.75-3.76,4.44-3.76A18.19,18.19,0,0,0,264.76,287.23Z" transform="translate(-146.27 -184.38)"/><path d="M687.36,303a128.55,128.55,0,0,0-16.18,23.49,97.27,97.27,0,0,1-17.51,22.82c-8.86,8-9.3,8.65-2.88,4.88,8.65-4.88,17.72-15.73,24.83-29.48a102.54,102.54,0,0,1,14.8-20.39c5.54-6,9.09-10.85,8-10.85S692.25,297.63,687.36,303Z" transform="translate(-146.27 -184.38)"/><path d="M650.8,310.49c-4.65,5.33-8.46,13.07-8.46,16.62,0.21,1.54,1.78-.21,3.76-3.76A51.94,51.94,0,0,1,653,312.77c1.78-2,2.88-4.23,2.11-4.88S652.66,308.5,650.8,310.49Z" transform="translate(-146.27 -184.38)"/><path d="M632.4,345.28a66.57,66.57,0,0,1-12.41,18c-3.76,3.11-6,5.54-4.88,5.54,4.23,0,16.62-14,20.83-23.49C642.59,330.66,639.27,330.66,632.4,345.28Z" transform="translate(-146.27 -184.38)"/><path d="M298,195.7a8.63,8.63,0,0,1-6.34,2.43,18,18,0,0,0-7.53,1.78c-1.33.89,6.64,1.54,18,1.54,18.61,0,21.49.66,35.68,7.53,12.41,6,20.17,12.41,38.78,31.26,12.86,13.07,26.81,25.48,31,27.49l7.76,3.55-6.64-4.88c-3.55-2.88-16.62-15.08-28.8-27.26C357.07,216.32,340.21,205,319.17,199L309,195.85l9.3,1.1a86.41,86.41,0,0,1,45,20.39c6.2,5.54,11.74,9.54,12.41,9.09,2.43-2.66-22.37-21.93-34.13-26.37C326.8,194.6,300.22,191.94,298,195.7Z" transform="translate(-146.27 -184.38)"/><path d="M382.21,209.89c25.93,13.3,34.58,20.17,63.61,49,12.18,12.18,25.71,23.26,32.12,26.6,15.73,8,19.73,7.08,5.1-.89-6.64-3.76-23.71-18-37.66-31.72-27-26.37-49.19-42.55-68.47-50.08C356.73,194.77,358.95,197.92,382.21,209.89Z" transform="translate(-146.27 -184.38)"/><path d="M232.4,203c18.4,4.88,22.16,5.75,21.15,4-0.66-1.1-6.2-2.88-12.41-4.23C227.6,199.91,221.55,199.91,232.4,203Z" transform="translate(-146.27 -184.38)"/><path d="M407,201.9a118.43,118.43,0,0,0,17.72,0c4.44-.44.21-0.89-9.54-0.89S401.71,201.46,407,201.9Z" transform="translate(-146.27 -184.38)"/><path d="M496.17,204.8c-4.65,2.88-1.54,4.88,10.57,6.87,13.51,2,45.42,17.28,60.71,28.8l11.74,8.86-10.43-9.75c-12-11.29-44.09-27.91-57.1-29.61-11.74-1.54-13.75-5.1-2.66-5.1a114.64,114.64,0,0,1,63.61,20.83c10.19,7.53,13.07,9.09,11.08,6-3.32-5.75-29-20.39-42.78-24.59C526,202.34,501.88,201.24,496.17,204.8Z" transform="translate(-146.27 -184.38)"/><path d="M548.19,204.56a36.31,36.31,0,0,0,12.18,2.11A99.6,99.6,0,0,1,579.21,210c11.29,2.88,39.88,16.39,38.34,18-0.44.44-9.3-2.43-19.5-6.64s-20.83-7.53-23.26-7.53,1.1,2,7.76,4A131.24,131.24,0,0,1,636,248.59c13.75,12.41,15.08,13.3,9.09,5.54a111.34,111.34,0,0,0-17.28-16.62c-10-7.08-12.41-10-6.2-7.53,7.32,2.88,0-3.32-13.07-10.85-14.8-8.65-8.86-8.46,6.87,0,5.1,2.88,8.86,4.44,8.21,3.11-2.66-4-23.49-13.3-27.26-12.18-2,.66-8.46-0.21-14.19-2C569.47,204.35,541.55,201.46,548.19,204.56Z" transform="translate(-146.27 -184.38)"/><path d="M329.26,212.54a104.53,104.53,0,0,1,29.92,22.61c19.29,20.39,28.8,29.48,31,29.48s-14.8-18.61-31.47-35c-9.54-9.54-28.36-20.62-39.88-23.49C315.72,205.45,320.37,208.33,329.26,212.54Z" transform="translate(-146.27 -184.38)"/><path d="M412.34,209.22c0.44,1.54,7.53,5.1,15.52,7.53a120.54,120.54,0,0,1,23.9,11.08c5.1,3.32,9.75,5.75,10.19,5.33,1.54-1.54-23.49-15.73-35.23-19.94l-11.53-4,22.37,0.89c26.16,1.33,41.45,6,62,18.84,7.53,4.88,13.51,7.53,12.86,6-1.54-4-22.82-16.18-37.66-21.72C458.89,207.46,410.57,204.35,412.34,209.22Z" transform="translate(-146.27 -184.38)"/><path d="M715.51,212.77c12.69,3.76,22.37,14.63,28.59,31.91,2.66,7.32,6,13.75,7.32,14.63q2.66,1.67.66-2.66c-0.89-2.11-3.55-9.3-6-15.29-8-20.17-21.49-32.57-35.46-31.91C707.3,209.58,708.87,210.55,715.51,212.77Z" transform="translate(-146.27 -184.38)"/><path d="M454.68,216.09c19.73,4,52.87,22.16,63.17,35,16,19.94,45.66,44.77,52.87,44.54,0.89-.21-1.78-2.11-6.2-4.44-8.86-4.65-14.63-10-37.66-34.58-23.94-25.48-55.17-43.44-74.69-42.78C444.25,214.1,444.25,214.1,454.68,216.09Z" transform="translate(-146.27 -184.38)"/><path d="M301.62,226.73a157.66,157.66,0,0,1,16.18,16.39c2.88,4,5.54,5.75,5.54,4.23,0-4-16.18-20.83-24.83-25.71C292.23,218.31,292.67,219,301.62,226.73Z" transform="translate(-146.27 -184.38)"/><path d="M689.14,228.95a190.75,190.75,0,0,1,24.59,19.94c8,7.32,15.29,13.51,16.39,13.51,2.11,0-30.81-30.58-38.78-35.95a22.29,22.29,0,0,0-8.86-4C680.72,222.52,683.6,225.39,689.14,228.95Z" transform="translate(-146.27 -184.38)"/><path d="M701.11,228.5c1.33,1.1,7.08,6.64,13.3,12,10,8.86,10.43,9.09,4.65,2a65.56,65.56,0,0,0-13.3-12C702,228.06,700,227.17,701.11,228.5Z" transform="translate(-146.27 -184.38)"/><path d="M490.35,256c17.51,16.18,27.7,24.15,31,24.15,1.33,0-.21-1.78-3.11-3.76s-12-9.3-19.94-16.18C477.14,242,472.91,239.58,490.35,256Z" transform="translate(-146.27 -184.38)"/><path d="M563.84,256c8.46,6.34,19,14.8,23.49,18.84,8.86,8,19.73,14.19,24.38,14.19,1.54-.21-1.1-2.11-5.75-4.88A157.2,157.2,0,0,1,584.25,269c-14.19-12-31.72-24.38-34.13-24.38C549.29,244.68,555.51,249.76,563.84,256Z" transform="translate(-146.27 -184.38)"/><path d="M331.69,263.73c5.75,8.46,19.5,20.83,23.05,20.83,1.33,0,2-.21,1.54-0.66s-7.32-6.64-15.08-14C331.46,261.07,328.37,259.08,331.69,263.73Z" transform="translate(-146.27 -184.38)"/><path d="M594.74,273c4.44,4.44,28.36,16,33,15.73,3.32,0,2.43-.89-3.11-2.88-4.44-1.78-13.3-5.75-19.94-9.09S593.62,271.71,594.74,273Z" transform="translate(-146.27 -184.38)"/><path d="M374.24,307.38c-11.29,4-40.56,21.27-46.52,27.49-2.11,2.43,10.19-4.65,19.5-10.85a119,119,0,0,1,43.65-18.61c10.57-2.11,11.74-2.66,5.54-2.88A94.47,94.47,0,0,0,374.24,307.38Z" transform="translate(-146.27 -184.38)"/><path d="M368.25,316c-7.76,4-13.51,7.32-13.07,8s7.76-2.88,16-7.08,14.4-7.76,13.07-7.76A98.55,98.55,0,0,0,368.25,316Z" transform="translate(-146.27 -184.38)"/><path d="M606.71,330.66a168.09,168.09,0,0,0-14.8,18,67.52,67.52,0,0,1-13.07,14c-3.76,2.43-4.88,4-2.88,4,4,0,16.92-12.86,24.38-24.38a68.07,68.07,0,0,1,10.57-12.69c3.32-2.66,5.33-5.33,4.65-6S610.91,326,606.71,330.66Z" transform="translate(-146.27 -184.38)"/><path d="M398.62,336.46a170,170,0,0,1-23.26,13.07c-4.88,2-7.32,3.55-5.33,3.55,5.1,0.21,28.36-12,37.45-19.73C417.93,324.45,415.66,325.33,398.62,336.46Z" transform="translate(-146.27 -184.38)"/><path d="M525.37,336.86c-6,4-9.75,11.08-15.73,29.25-5.54,16.18-5.54,16-1.33,16,5.1,0,19-13.51,27.26-26.6A165,165,0,0,1,548,338c3.11-3.55,3.55-4.88,1.33-4.23-1.78.44-8.86,9.09-15.52,19C522.5,369.68,513,379.58,510.3,376.91c-2.11-2.11,10.19-31.26,16-37.24C533.11,332.65,532.9,331.55,525.37,336.86Z" transform="translate(-146.27 -184.38)"/><path d="M492.79,344c-3.76,3.32-9.75,8.46-13.3,11.08l-6.58,5.31,6.87-4.23c9.75-5.75,21.93-15.73,20.83-17.07C499.89,338.57,496.34,340.86,492.79,344Z" transform="translate(-146.27 -184.38)"/><path d="M546,355.49c-10.19,9.75-17.51,17.72-16.18,17.72,2.66,0,39.23-35.46,36.56-35.46C565.26,337.75,556.16,345.72,546,355.49Z" transform="translate(-146.27 -184.38)"/></svg>